<svg width="15" height="16" viewBox="0 0 15 16" fill="none" xmlns="http://www.w3.org/2000/svg">
<path fill-rule="evenodd" clip-rule="evenodd" d="M7.5 0C9.22391 0 10.8774 0.699233 12.0964 1.94417C13.3153 3.1891 14 4.87775 14 6.63836C14 9.22649 12.3831 11.5638 10.8633 13.2022C10.0931 14.0325 9.32407 14.7084 8.7487 15.1763C8.46073 15.4105 8.22037 15.5938 8.05078 15.7189C7.96594 15.7815 7.89871 15.8296 7.85221 15.8625C7.82907 15.8789 7.81074 15.891 7.79818 15.8997C7.79189 15.9041 7.78668 15.908 7.7832 15.9104C7.78159 15.9115 7.7793 15.913 7.7793 15.913L7.778 15.9137L7.77734 15.9144C7.63034 16.0145 7.44448 16.0267 7.28776 15.9516L7.22266 15.9144L7.22201 15.9137L7.2207 15.913C7.2207 15.913 7.21841 15.9115 7.2168 15.9104C7.21332 15.908 7.20811 15.9041 7.20182 15.8997C7.18926 15.891 7.17093 15.8789 7.14779 15.8625C7.10129 15.8296 7.03406 15.7815 6.94922 15.7189C6.77963 15.5938 6.53927 15.4105 6.2513 15.1763C5.67593 14.7084 4.90689 14.0325 4.13672 13.2022C2.61689 11.5638 1 9.22649 1 6.63836C1 4.87775 1.68466 3.1891 2.90365 1.94417C4.12263 0.699233 5.77609 0 7.5 0ZM7.5 1.02129C6.04131 1.02129 4.64213 1.61284 3.61068 2.66625C2.57923 3.71965 2 5.14862 2 6.63836C2 8.81611 3.38317 10.9045 4.86328 12.5001C5.59294 13.2867 6.32415 13.9302 6.8737 14.3771C7.12831 14.5842 7.34375 14.7478 7.5 14.8638C7.65625 14.7478 7.8717 14.5842 8.1263 14.3771C8.67585 13.9302 9.40706 13.2867 10.1367 12.5001C11.6168 10.9045 13 8.81611 13 6.63836C13 5.14862 12.4208 3.71965 11.3893 2.66625C10.3579 1.61284 8.95869 1.02129 7.5 1.02129Z" fill="#54616C"/>
<path fill-rule="evenodd" clip-rule="evenodd" d="M7.5 1.02129C6.04131 1.02129 4.64213 1.61284 3.61068 2.66625C2.57923 3.71965 2 5.14862 2 6.63836C2 8.81611 3.38317 10.9045 4.86328 12.5001C5.59294 13.2867 6.32415 13.9302 6.8737 14.3771C7.12831 14.5842 7.34375 14.7478 7.5 14.8638C7.65625 14.7478 7.8717 14.5842 8.1263 14.3771C8.67585 13.9302 9.40706 13.2867 10.1367 12.5001C11.6168 10.9045 13 8.81611 13 6.63836C13 5.14862 12.4208 3.71965 11.3893 2.66625C10.3579 1.61284 8.95869 1.02129 7.5 1.02129ZM10 6.63836C10 5.22825 8.88071 4.08514 7.5 4.08514C6.11929 4.08514 5 5.22825 5 6.63836C5 8.04846 6.11929 9.19157 7.5 9.19157C8.88071 9.19157 10 8.04846 10 6.63836Z" fill="#54616C"/>
</svg>
