<svg aria-hidden="true" xmlns="http://www.w3.org/2000/svg" xmlns:xlink="http://www.w3.org/1999/xlink"><symbol viewBox="0 0 20 20" fill="none" id="icon-close" xmlns="http://www.w3.org/2000/svg">
<path d="M18.2929 0.292893C18.6834 -0.0976306 19.3164 -0.0976306 19.707 0.292893C20.0975 0.683417 20.0975 1.31643 19.707 1.70696L11.414 9.99992L19.707 18.2929C20.0975 18.6834 20.0975 19.3164 19.707 19.707C19.3164 20.0975 18.6834 20.0975 18.2929 19.707L9.99992 11.414L1.70696 19.707C1.31643 20.0975 0.683417 20.0975 0.292893 19.707C-0.0976306 19.3164 -0.0976306 18.6834 0.292893 18.2929L8.58586 9.99992L0.292893 1.70696C-0.0976311 1.31643 -0.0976311 0.683417 0.292893 0.292893C0.683417 -0.0976311 1.31643 -0.0976311 1.70696 0.292893L9.99992 8.58586L18.2929 0.292893Z" fill="currentColor"/>
</symbol><symbol viewBox="0 0 11 6" fill="none" id="icon-down" xmlns="http://www.w3.org/2000/svg">
<path d="M10.3331 0L11 0.646875L5.5 6L0 0.646875L0.663437 0L5.5 4.70312L10.3331 0Z" fill="currentColor"/>
</symbol><symbol viewBox="0 0 15 16" fill="none" id="icon-location" xmlns="http://www.w3.org/2000/svg">
<path fill-rule="evenodd" clip-rule="evenodd" d="M7.5 0C9.22391 0 10.8774 0.699233 12.0964 1.94417C13.3153 3.1891 14 4.87775 14 6.63836C14 9.22649 12.3831 11.5638 10.8633 13.2022C10.0931 14.0325 9.32407 14.7084 8.7487 15.1763C8.46073 15.4105 8.22037 15.5938 8.05078 15.7189C7.96594 15.7815 7.89871 15.8296 7.85221 15.8625C7.82907 15.8789 7.81074 15.891 7.79818 15.8997C7.79189 15.9041 7.78668 15.908 7.7832 15.9104C7.78159 15.9115 7.7793 15.913 7.7793 15.913L7.778 15.9137L7.77734 15.9144C7.63034 16.0145 7.44448 16.0267 7.28776 15.9516L7.22266 15.9144L7.22201 15.9137L7.2207 15.913C7.2207 15.913 7.21841 15.9115 7.2168 15.9104C7.21332 15.908 7.20811 15.9041 7.20182 15.8997C7.18926 15.891 7.17093 15.8789 7.14779 15.8625C7.10129 15.8296 7.03406 15.7815 6.94922 15.7189C6.77963 15.5938 6.53927 15.4105 6.2513 15.1763C5.67593 14.7084 4.90689 14.0325 4.13672 13.2022C2.61689 11.5638 1 9.22649 1 6.63836C1 4.87775 1.68466 3.1891 2.90365 1.94417C4.12263 0.699233 5.77609 0 7.5 0ZM7.5 1.02129C6.04131 1.02129 4.64213 1.61284 3.61068 2.66625C2.57923 3.71965 2 5.14862 2 6.63836C2 8.81611 3.38317 10.9045 4.86328 12.5001C5.59294 13.2867 6.32415 13.9302 6.8737 14.3771C7.12831 14.5842 7.34375 14.7478 7.5 14.8638C7.65625 14.7478 7.8717 14.5842 8.1263 14.3771C8.67585 13.9302 9.40706 13.2867 10.1367 12.5001C11.6168 10.9045 13 8.81611 13 6.63836C13 5.14862 12.4208 3.71965 11.3893 2.66625C10.3579 1.61284 8.95869 1.02129 7.5 1.02129Z" fill="currentColor"/>
<path fill-rule="evenodd" clip-rule="evenodd" d="M7.5 1.02129C6.04131 1.02129 4.64213 1.61284 3.61068 2.66625C2.57923 3.71965 2 5.14862 2 6.63836C2 8.81611 3.38317 10.9045 4.86328 12.5001C5.59294 13.2867 6.32415 13.9302 6.8737 14.3771C7.12831 14.5842 7.34375 14.7478 7.5 14.8638C7.65625 14.7478 7.8717 14.5842 8.1263 14.3771C8.67585 13.9302 9.40706 13.2867 10.1367 12.5001C11.6168 10.9045 13 8.81611 13 6.63836C13 5.14862 12.4208 3.71965 11.3893 2.66625C10.3579 1.61284 8.95869 1.02129 7.5 1.02129ZM10 6.63836C10 5.22825 8.88071 4.08514 7.5 4.08514C6.11929 4.08514 5 5.22825 5 6.63836C5 8.04846 6.11929 9.19157 7.5 9.19157C8.88071 9.19157 10 8.04846 10 6.63836Z" fill="currentColor"/>
</symbol><symbol viewBox="0 0 14 24" fill="none" id="icon-next" xmlns="http://www.w3.org/2000/svg">
<g clip-path="url(#dclip0_4_1058)">
<path d="M1.625 22.1254L11.3757 12.0002L1.625 1.87512" stroke="currentColor" stroke-width="3"/>
</g>
<defs>
<clipPath id="dclip0_4_1058">
<rect width="14" height="24" fill="currentColor"/>
</clipPath>
</defs>
</symbol><symbol viewBox="0 0 14 24" fill="none" id="icon-prev" xmlns="http://www.w3.org/2000/svg">
<g clip-path="url(#eclip0_4_1055)">
<path d="M12.8752 22.1254L3.12451 12.0002L12.8752 1.87512" stroke="currentColor" stroke-width="3"/>
</g>
<defs>
<clipPath id="eclip0_4_1055">
<rect width="14" height="24" fill="currentColor"/>
</clipPath>
</defs>
</symbol><symbol viewBox="0 0 36 36" fill="none" id="icon-tel" xmlns="http://www.w3.org/2000/svg">
<path d="M28.9485 24.3599C28.6921 24.0744 27.7871 23.2304 26.1233 22.1137C24.4472 20.9873 23.2112 20.285 22.8566 20.1212C22.8253 20.1067 22.7909 20.1014 22.757 20.1058C22.7231 20.1103 22.691 20.1243 22.6641 20.1464C22.093 20.612 21.1314 21.4674 21.0798 21.5136C20.7469 21.8118 20.7469 21.8118 20.4743 21.7189C19.995 21.5546 18.5061 20.7281 17.2086 19.3686C15.9112 18.0091 15.0798 16.4139 14.9226 15.9134C14.8328 15.6279 14.8328 15.6279 15.1191 15.2798C15.1633 15.2259 15.9819 14.2207 16.4273 13.6241C16.4484 13.596 16.4618 13.5624 16.4661 13.527C16.4703 13.4915 16.4652 13.4555 16.4514 13.4228C16.2947 13.0517 15.6229 11.7599 14.5455 10.0077C13.4759 8.2688 12.6695 7.3226 12.3965 7.0546C12.3714 7.02988 12.3405 7.01269 12.3068 7.00483C12.2732 6.99697 12.2382 6.99873 12.2055 7.00994C11.251 7.35283 10.3301 7.79036 9.45539 8.31655C8.61093 8.82976 7.81145 9.41989 7.06626 10.0801C7.04025 10.1032 7.02074 10.1333 7.00984 10.1671C6.99894 10.2009 6.99706 10.2372 7.00438 10.2721C7.10702 10.7722 7.59761 12.8596 9.11997 15.7511C10.6733 18.7022 11.7497 20.2141 14.0308 22.5907C16.3119 24.9672 17.8038 26.1604 20.6295 27.7843C23.3953 29.3758 25.393 29.8892 25.8704 29.9955C25.9038 30.0031 25.9386 30.0011 25.971 29.9897C26.0034 29.9783 26.0323 29.9579 26.0545 29.9308C26.6859 29.1518 27.2502 28.3159 27.7409 27.4331C28.2441 26.5185 28.6626 25.5558 28.9907 24.558C29.0012 24.5241 29.0028 24.4878 28.9954 24.4529C28.988 24.4181 28.9718 24.386 28.9485 24.3599Z" fill="currentColor"/>
</symbol></svg>