<svg width="320" height="64" viewBox="0 0 320 64" fill="none" xmlns="http://www.w3.org/2000/svg">
<path fill-rule="evenodd" clip-rule="evenodd" d="M215.995 -0.000488281H215.996C216.209 -0.000488281 216.383 0.173643 216.383 0.386522V63C216.383 63.2114 216.209 63.386 215.996 63.386H215.995C215.783 63.386 215.608 63.2119 215.608 63V0.386522C215.608 0.173643 215.783 -0.000488281 215.995 -0.000488281Z" fill="white"/>
<path fill-rule="evenodd" clip-rule="evenodd" d="M201.638 5.92236H0V42.1789H148.022H201.638V5.92236Z" fill="#E22427"/>
<path fill-rule="evenodd" clip-rule="evenodd" d="M144.655 24.0497C144.655 32.8276 142.61 39.944 140.087 39.9449H6.80148C4.27898 39.9449 2.23438 32.8285 2.23438 24.0497C2.23438 15.2714 4.27898 8.15503 6.80148 8.15503H140.087C142.61 8.15599 144.655 15.2719 144.655 24.0497Z" fill="#FEFEFE"/>
<path fill-rule="evenodd" clip-rule="evenodd" d="M15.7627 15.8469H19.6654L25.8169 32.2109H21.7382L20.6786 29.1459H14.7467L13.7105 32.2109H9.62988L15.7618 15.8469H15.7627ZM15.5853 26.3665H19.8419L17.7241 20.1265L15.5853 26.3665ZM27.3391 15.8469H35.5658C37.0215 15.8469 38.0984 16.0837 38.7954 16.5525C39.4948 17.0232 39.977 17.5379 40.2401 18.0976C40.4161 18.4794 40.5233 18.8425 40.5611 19.1883C40.5974 19.5333 40.6156 19.8102 40.6156 20.0159C40.6156 20.7661 40.4573 21.3688 40.1411 21.8242C39.8253 22.2801 39.4766 22.6317 39.0934 22.8819C38.8729 23.0302 38.6605 23.1441 38.4548 23.2245C38.2491 23.3053 38.0716 23.3675 37.9252 23.4115V23.4569C37.984 23.4713 38.0419 23.4813 38.1012 23.489C38.1606 23.4952 38.2194 23.5077 38.2773 23.5225C39.0566 23.7287 39.7741 24.1539 40.4276 24.8017C41.0825 25.4494 41.4097 26.3889 41.4097 27.6246C41.4097 29.0511 41.038 30.0797 40.2961 30.7111C39.5517 31.345 38.7327 31.7631 37.8357 31.9688C37.3354 32.087 36.8464 32.1568 36.3695 32.1788C35.8926 32.2003 35.4831 32.2123 35.1458 32.2123H27.3386V15.8483L27.3391 15.8469ZM31.1996 25.3068V29.2114H35.2123C35.3309 29.2114 35.4654 29.1999 35.6204 29.1779C35.7744 29.1554 35.9418 29.1071 36.1169 29.0349C36.4102 28.9167 36.6867 28.7144 36.9426 28.4273C37.2009 28.1422 37.3296 27.7255 37.3296 27.1826C37.3296 26.3751 37.0612 25.8603 36.525 25.6398C35.9887 25.4188 35.4027 25.3068 34.7707 25.3068C34.7564 25.3068 34.7444 25.3068 34.7382 25.3068C34.7315 25.3068 34.72 25.3068 34.7047 25.3068H31.1987H31.1996ZM31.1996 18.8463V22.3093H34.7712C34.8459 22.3093 34.9195 22.3064 34.9918 22.2978C35.0659 22.2916 35.1401 22.2796 35.2123 22.2643C35.5811 22.2055 35.915 22.0438 36.2159 21.7793C36.5168 21.5142 36.6685 21.1244 36.6685 20.6111C36.6685 19.992 36.4843 19.5543 36.1169 19.2979C35.7486 19.0415 35.3458 18.898 34.9042 18.8683C34.8597 18.853 34.8124 18.8458 34.7597 18.8458C34.7086 18.8458 34.6545 18.8458 34.5952 18.8458H31.1992L31.1996 18.8463ZM47.7827 19.0238H42.8434V15.8473H56.5821V19.0238H51.6428V32.2113H47.7827V19.0238ZM66.1535 32.6734C63.1541 32.6586 61.0262 31.7698 59.7695 30.0065C58.5123 28.2408 57.8838 26.2502 57.8838 24.0286C57.8838 23.8822 57.8871 23.7306 57.8952 23.5761C57.9015 23.4211 57.9134 23.2713 57.9282 23.1249C58.0598 21.1832 58.7444 19.4084 59.9781 17.7986C61.2142 16.1884 63.2722 15.3833 66.1535 15.3833C69.0788 15.3833 71.1517 16.1999 72.373 17.8321C73.5924 19.4644 74.2683 21.2573 74.4013 23.212C74.4013 23.346 74.4042 23.4804 74.4128 23.6201C74.419 23.7598 74.4228 23.8966 74.4228 24.0281C74.4228 24.1592 74.4195 24.296 74.4128 24.4362C74.4042 24.5759 74.4013 24.7127 74.4013 24.8438C74.2683 26.7999 73.5919 28.5905 72.373 30.2146C71.1517 31.8387 69.0793 32.6514 66.1535 32.6514V32.6725V32.6734ZM66.1535 29.4984C67.3739 29.4984 68.2675 29.1707 68.8334 28.5168C69.3998 27.8624 69.7845 27.1467 69.9902 26.3665C70.1083 25.9402 70.1815 25.5178 70.2107 25.0983C70.2403 24.6802 70.2547 24.3238 70.2547 24.0291C70.2547 23.722 70.2403 23.3675 70.2107 22.9714C70.1815 22.5743 70.1155 22.1615 70.0136 21.7353C69.8227 20.9421 69.4391 20.215 68.866 19.5519C68.2924 18.8908 67.3887 18.5598 66.1535 18.5598C64.6691 18.5598 63.6425 19.0343 63.0761 19.9829C62.5102 20.9306 62.1825 21.9706 62.0959 23.102C62.0806 23.2632 62.0696 23.4215 62.0634 23.5765C62.0548 23.7311 62.0519 23.8827 62.0519 24.0291C62.0519 24.2195 62.0548 24.408 62.0634 24.5917C62.0696 24.7758 62.0892 24.9615 62.1174 25.1542C62.2208 26.2421 62.5575 27.2386 63.1325 28.1422C63.7047 29.0449 64.7117 29.4984 66.1535 29.4984ZM88.0084 26.4325H91.8455C91.8158 26.7717 91.7565 27.1352 91.6694 27.5251C91.5805 27.915 91.4556 28.3063 91.2939 28.7043C90.8973 29.7037 90.1769 30.6236 89.1321 31.4608C88.0892 32.2979 86.5158 32.7175 84.4138 32.7175C82.0607 32.7175 80.3299 32.2262 79.2191 31.2402C78.1102 30.2547 77.3568 29.1674 76.9602 27.9757C76.7248 27.2998 76.5732 26.6382 76.5076 25.9919C76.4421 25.3446 76.4091 24.794 76.4091 24.3381C76.4091 21.8989 76.832 20.0633 77.6763 18.8363C78.5216 17.6087 79.4511 16.7433 80.4667 16.2449C81.2742 15.8473 82.0391 15.6086 82.7601 15.5273C83.481 15.4469 83.9876 15.4077 84.2823 15.4077C86.413 15.4077 88.0007 15.8071 89.0455 16.6084C90.0889 17.4092 90.8088 18.2947 91.2059 19.2654C91.3537 19.6323 91.4637 20.0006 91.5365 20.368C91.6096 20.7364 91.6546 21.0803 91.6694 21.4042H87.8754C87.8606 21.243 87.8276 21.0622 87.7769 20.8646C87.7257 20.6656 87.6487 20.4642 87.5448 20.2575C87.354 19.8461 87.0201 19.4644 86.5431 19.1113C86.0642 18.7588 85.3701 18.5813 84.4583 18.5813C83.3561 18.5813 82.54 18.8903 82.0104 19.5089C81.4809 20.1265 81.1073 20.8024 80.8853 21.5377C80.7384 22.0663 80.6514 22.5772 80.6217 23.0699C80.592 23.5631 80.5777 23.9334 80.5777 24.1836C80.5777 25.625 80.7901 26.7123 81.2163 27.4476C81.644 28.1829 82.1143 28.7043 82.6295 29.0129C83.0552 29.2621 83.4552 29.4142 83.8307 29.4654C84.2057 29.518 84.4588 29.5424 84.5904 29.5424C85.4428 29.5424 86.0977 29.3697 86.5536 29.0239C87.0091 28.679 87.3482 28.2919 87.5692 27.8652C87.7156 27.5873 87.8223 27.3146 87.8883 27.051C87.9539 26.786 87.9955 26.5803 88.0098 26.4325H88.0084ZM98.0644 22.3519H106.07V25.3518H98.0644V29.0354H107.37V32.2113H94.2049V15.8473H107.15V19.0238H98.0649V22.3519H98.0644ZM113.149 19.0238H108.208V15.8473H121.947V19.0238H117.007V32.2113H113.149V19.0238ZM127.859 15.8473V21.7802H131.937C134.114 21.7802 135.613 22.2945 136.437 23.3235C137.26 24.3534 137.707 25.4853 137.782 26.7195C137.782 26.7932 137.782 26.864 137.782 26.9276C137.782 26.9955 137.782 27.0649 137.782 27.139C137.782 28.8598 137.289 30.1347 136.304 30.9656C135.32 31.7947 133.856 32.2113 131.916 32.2113H123.999V15.8473H127.859H127.859ZM127.859 24.9557V29.0358H131.144C131.835 29.0358 132.431 28.8995 132.929 28.6283C133.429 28.3556 133.679 27.8155 133.679 27.007C133.679 26.1976 133.423 25.6537 132.908 25.3757C132.393 25.0959 131.769 24.9557 131.035 24.9557H127.859Z" fill="#4D4D4D"/>
<path fill-rule="evenodd" clip-rule="evenodd" d="M6.80148 39.9449V8.15503C4.27898 8.15503 2.23438 15.2714 2.23438 24.0497C2.23438 32.8285 4.27898 39.9449 6.80148 39.9449ZM144.655 24.0497C144.655 32.8276 142.61 39.944 140.087 39.9449V8.15503C142.61 8.15599 144.655 15.2719 144.655 24.0497Z" fill="#EDEDED"/>
<path fill-rule="evenodd" clip-rule="evenodd" d="M181.215 33.3231H185.214V30.9259H185.852C188.578 30.9259 190.587 30.2567 191.882 28.9153C193.177 27.5758 193.824 25.9546 193.824 24.0502C193.824 22.1462 193.177 20.5259 191.882 19.1846C190.587 17.846 188.578 17.1763 185.852 17.1763H185.214V14.7772H181.215V17.1763H180.577C177.85 17.1763 175.84 17.846 174.547 19.1846C173.252 20.5259 172.605 22.1457 172.605 24.0502C172.605 25.9541 173.252 27.5758 174.547 28.9153C175.841 30.2567 177.851 30.9259 180.577 30.9259H181.215V33.3231ZM157.096 15.7359V32.685H161.092V26.8602H164.906C165.256 26.8602 165.671 26.8401 166.151 26.8028C166.63 26.765 167.123 26.6693 167.624 26.5181C168.523 26.2579 169.348 25.7365 170.104 24.9534C170.857 24.1688 171.234 22.9231 171.234 21.2182C171.234 19.7725 170.796 18.4971 169.92 17.3935C169.044 16.2894 167.404 15.7364 164.999 15.7364H157.096V15.7359ZM161.092 19.0487V23.5713H164.222C165.06 23.5713 165.746 23.4149 166.277 23.1025C166.81 22.7911 167.077 22.1697 167.077 21.2411C167.077 20.3724 166.827 19.7907 166.324 19.4945C165.822 19.1984 165.121 19.0487 164.223 19.0487H161.093H161.092ZM181.58 27.7275V20.3724H181.261C179.678 20.3724 178.531 20.6967 177.824 21.3435C177.115 21.9912 176.761 22.893 176.761 24.0497C176.761 25.3901 177.175 26.3387 178.006 26.8951C178.835 27.4491 179.92 27.7275 181.261 27.7275H181.58H181.58ZM184.847 27.7275H185.168C186.521 27.7275 187.611 27.4496 188.434 26.8951C189.256 26.3387 189.666 25.3906 189.666 24.0497C189.666 22.893 189.312 21.9912 188.605 21.3435C187.897 20.6962 186.751 20.3724 185.168 20.3724H184.847V27.7275H184.847Z" fill="url(#paint0_linear_13_1720)"/>
<path fill-rule="evenodd" clip-rule="evenodd" d="M5.55657 56.3399V55.4425H5.215C4.95237 55.4425 4.66869 55.4128 4.36731 55.355C4.06545 55.2976 3.76599 55.1847 3.46987 55.0206C3.17327 54.8574 2.92834 54.6139 2.73268 54.292C2.53702 53.971 2.43848 53.562 2.43848 53.0659C2.43848 52.4244 2.59634 51.9264 2.91351 51.5743C3.22828 51.2222 3.59329 50.9873 4.009 50.8697C4.4252 50.7534 4.82608 50.6941 5.21548 50.6941H5.55657V49.7885H6.37938V50.6941H6.72047C7.11753 50.6941 7.52367 50.7529 7.93747 50.8682C8.35223 50.9854 8.71628 51.2203 9.02675 51.5714C9.34057 51.9245 9.49604 52.4234 9.49604 53.0669C9.49604 53.5859 9.38984 54.0093 9.17505 54.336C8.95977 54.6627 8.69714 54.9048 8.38715 55.0608C8.07812 55.2177 7.77913 55.3205 7.49258 55.3703C7.20651 55.42 6.95057 55.4449 6.71951 55.4449H6.37891V56.3428L5.55609 56.3399H5.55657ZM5.55657 54.8106V51.3279H5.32981C3.98556 51.3279 3.31439 51.9073 3.31439 53.0664C3.31439 53.3486 3.35936 53.617 3.44834 53.8696C3.53588 54.1212 3.73059 54.3432 4.03197 54.5293C4.33143 54.7173 4.76485 54.8101 5.32934 54.8101L5.55657 54.8106ZM6.37938 54.8106H6.61618C7.9523 54.8106 8.62108 54.2284 8.62108 53.0659C8.62108 52.3699 8.41873 51.9058 8.01067 51.6757C7.60308 51.4428 7.13953 51.3284 6.61618 51.3284L6.37938 51.3275V54.8101V54.8106ZM12.3343 52.6875H15.5461V53.362H12.3343V55.4415L15.9762 55.4425V56.118H11.5124V50.1272H15.882V50.8032H12.3343V52.6875ZM22.4946 55.443H23.3777L23.2997 57.4708L22.5807 57.4713V56.1189H17.818V57.4708L17.0994 57.4713L17.0301 55.4435H17.5807C18.3581 54.5178 18.7455 53.1582 18.7455 51.3614V50.1291H22.4941V55.4435L22.4946 55.443ZM21.6709 50.8046H19.5688V51.5504C19.5688 52.0728 19.5416 52.5478 19.488 52.9788C19.433 53.4079 19.3301 53.8289 19.1809 54.2422C19.0326 54.6556 18.8264 55.055 18.5623 55.442L21.6704 55.443L21.6709 50.8051V50.8046ZM25.9653 52.6875H29.1771V53.362H25.9653V55.4415L29.6058 55.4425V56.118H25.1415V50.1272H29.512V50.8032H25.9658V52.6875H25.9653ZM31.405 50.1282H33.9007C35.2842 50.1282 35.9754 50.7008 35.9754 51.8479C35.9754 53.1037 35.2574 53.7304 33.8227 53.7304H32.2268V56.1185H31.405L31.4045 50.1282H31.405ZM32.2268 50.8041V53.0549H33.7347C34.2346 53.0549 34.5934 52.9521 34.8101 52.7483C35.0273 52.5421 35.1354 52.2484 35.1354 51.8652C35.1354 51.4806 35.0158 51.2088 34.778 51.0467C34.5379 50.884 34.1901 50.8027 33.7356 50.8027L32.2263 50.8036L32.2268 50.8041ZM38.5845 54.5695L38.0057 56.1204H37.1226L39.4422 50.1291L40.3182 50.1296L42.6388 56.1204H41.7524L41.1764 54.5695H38.584H38.5845ZM38.8108 53.894H40.952L39.8804 50.9414L38.8108 53.894ZM43.6223 56.1185V55.4167C43.6927 55.4339 43.7659 55.442 43.8438 55.442C44.659 55.442 45.068 54.5288 45.068 52.7047V50.1277H48.9113V56.1185H48.088V50.8041H45.8908V52.8784C45.8908 54.0753 45.7153 54.9215 45.3651 55.4128C45.0135 55.9061 44.5576 56.1524 43.9964 56.1524C43.9118 56.1534 43.7869 56.1419 43.6223 56.1185ZM52.1261 50.1277V52.5665H53.886C54.164 52.5665 54.4515 52.611 54.7462 52.699C55.0413 52.7865 55.3025 52.9654 55.5283 53.2329C55.7532 53.5012 55.8656 53.8763 55.8656 54.3633C55.8656 55.0153 55.6642 55.4698 55.2666 55.7305C54.8658 55.9879 54.406 56.118 53.886 56.118H51.3028V50.1272L52.1261 50.1277ZM52.1261 53.2434V55.4425H53.7884C53.9477 55.4425 54.119 55.4152 54.3037 55.3607C54.4893 55.3057 54.6557 55.1971 54.8031 55.0301C54.9509 54.8656 55.0255 54.634 55.0255 54.3379C55.0255 53.6079 54.5792 53.2424 53.6851 53.2424L52.1261 53.2429V53.2434ZM58.6177 53.3037V56.1185H57.7925V50.1277H58.6177V52.6258H61.6994V50.1277H62.5213V56.1185H61.6994V53.3037H58.6177ZM65.5987 54.569L65.0199 56.1194H64.1358L66.4574 50.1277H67.3329L69.6544 56.1194H68.7666L68.1911 54.568L65.5987 54.569ZM65.8255 53.8935H67.9638L66.8947 50.9409L65.8255 53.8935ZM75.1716 53.7375H73.7819L72.2812 56.1175H71.268L72.9304 53.6529C72.7405 53.6414 72.5482 53.6031 72.3539 53.539C72.1612 53.474 71.9822 53.3749 71.8158 53.2367C71.6498 53.1018 71.5182 52.9257 71.4168 52.7057C71.3163 52.4861 71.2685 52.2225 71.2685 51.9135C71.2685 51.4552 71.413 51.0414 71.6995 50.673C71.9885 50.3066 72.5486 50.1248 73.3777 50.1248H75.9959V56.1165H75.1721V53.7366L75.1711 53.7375H75.1716ZM75.1716 50.8036H73.448C72.9404 50.8036 72.5898 50.918 72.3975 51.1509C72.2052 51.3825 72.1085 51.6418 72.1085 51.9245C72.1085 52.2536 72.2176 52.5253 72.4357 52.742C72.6529 52.9549 73.0285 53.063 73.5619 53.063H75.1716V50.8036ZM81.9091 54.569L81.3298 56.1199H80.4472L82.7683 50.1286L83.6433 50.1291L85.9649 56.1199H85.0794L84.5024 54.569H81.9091ZM82.1359 53.8935H84.2747L83.2075 50.9409L82.1359 53.8935ZM87.578 50.1277H90.266C90.5999 50.1277 90.8845 50.1683 91.1209 50.2458C91.3557 50.3257 91.5461 50.4324 91.6897 50.5711C91.8317 50.7108 91.9355 50.8711 91.9987 51.0529C92.0628 51.2347 92.0948 51.4341 92.0948 51.6499C92.0948 51.846 92.0523 52.0355 91.9695 52.2206C91.8867 52.4048 91.7691 52.5603 91.6126 52.6889C91.4557 52.8162 91.2758 52.8985 91.0706 52.9353V52.9626C91.3873 53.0118 91.6825 53.1468 91.9518 53.3721C92.2235 53.594 92.3584 53.9543 92.3584 54.4494C92.3584 54.7905 92.2857 55.0832 92.1412 55.332C91.9968 55.5803 91.7614 55.7735 91.438 55.9108C91.1113 56.0481 90.6903 56.1199 90.1698 56.1199H87.5784V50.1277L87.577 50.1282L87.578 50.1277ZM88.3998 50.8036V52.6698H90.055C90.4927 52.6698 90.8018 52.5794 90.9836 52.4019C91.1634 52.222 91.2553 52.002 91.2553 51.7365C91.2553 51.5093 91.1773 51.2945 91.0218 51.0983C90.8659 50.9012 90.5511 50.8036 90.0828 50.8036H88.3993H88.3998ZM88.3998 53.3453V55.4415H90.1091C90.366 55.4415 90.6009 55.4143 90.808 55.3597C91.0147 55.3047 91.1859 55.199 91.3189 55.0426C91.4509 54.8857 91.516 54.6651 91.516 54.3805C91.516 54.0002 91.3916 53.7309 91.1395 53.5783C90.8893 53.4223 90.5444 53.3453 90.1086 53.3453H88.3998ZM95.8822 50.8036H93.884V50.1277H98.6917V50.8036H96.7045V56.1175H95.8827L95.8817 50.8036H95.8822ZM103.028 56.2974C102.566 56.2974 102.152 56.2247 101.786 56.0768C101.422 55.93 101.115 55.7185 100.865 55.442C100.618 55.1646 100.428 54.8311 100.297 54.4379C100.169 54.0423 100.105 53.6031 100.105 53.1228C100.105 52.5765 100.182 52.1024 100.339 51.6958C100.494 51.2892 100.71 50.9601 100.98 50.7013C101.249 50.4434 101.558 50.2549 101.912 50.1315C102.26 50.0105 102.635 49.9502 103.03 49.9502C103.434 49.9502 103.812 50.0086 104.16 50.1296C104.512 50.2511 104.82 50.441 105.09 50.6955C105.362 50.9534 105.568 51.2835 105.726 51.6915C105.879 52.0996 105.958 52.5746 105.958 53.1238C105.958 53.6127 105.894 54.0518 105.768 54.4408C105.64 54.8302 105.453 55.1641 105.201 55.4425C104.952 55.7195 104.644 55.9309 104.277 56.0783C103.908 56.2256 103.49 56.2983 103.028 56.2983L103.028 56.2974ZM103.026 55.6214C103.373 55.6214 103.676 55.5621 103.936 55.4425C104.196 55.321 104.41 55.1483 104.579 54.9273C104.749 54.7068 104.874 54.4413 104.954 54.1375C105.036 53.8304 105.076 53.4945 105.076 53.1243C105.076 52.5827 104.999 52.1393 104.844 51.7953C104.69 51.4504 104.5 51.1945 104.272 51.0275C104.045 50.8596 103.827 50.7505 103.613 50.7008C103.399 50.651 103.204 50.6252 103.025 50.6252C102.483 50.6252 102.002 50.8089 101.593 51.1753C101.185 51.5418 100.978 52.1933 100.978 53.1243C100.978 53.4883 101.029 53.8543 101.128 54.225C101.225 54.5967 101.426 54.922 101.731 55.2028C102.035 55.4827 102.469 55.6224 103.026 55.6224L103.026 55.6214ZM110.814 56.1185L108.82 51.0878H108.801L108.819 51.3174V56.118H107.996V50.1272H109.233L111.149 55.0569L113.065 50.1272H114.299V56.118H113.476V51.3174L113.492 51.0878H113.466L111.478 56.1199H110.812V56.1185H110.814ZM119.266 56.2974C118.802 56.2974 118.388 56.2247 118.025 56.0768C117.659 55.93 117.351 55.7185 117.103 55.442C116.854 55.1646 116.664 54.8311 116.533 54.4379C116.405 54.0423 116.341 53.6031 116.341 53.1228C116.341 52.5765 116.418 52.1024 116.574 51.6958C116.73 51.2892 116.946 50.9601 117.215 50.7013C117.485 50.4434 117.796 50.2549 118.145 50.1315C118.495 50.0105 118.868 49.9502 119.266 49.9502C119.668 49.9502 120.047 50.0086 120.397 50.1296C120.748 50.2511 121.057 50.441 121.325 50.6955C121.596 50.9534 121.805 51.2835 121.961 51.6915C122.113 52.0996 122.19 52.5746 122.19 53.1238C122.19 53.6127 122.126 54.0518 122.003 54.4408C121.876 54.8302 121.687 55.1641 121.435 55.4425C121.187 55.7195 120.878 55.9309 120.511 56.0783C120.144 56.2256 119.728 56.2983 119.267 56.2983L119.266 56.2974ZM119.265 55.6214C119.612 55.6214 119.915 55.5621 120.173 55.4425C120.434 55.321 120.645 55.1483 120.817 54.9273C120.984 54.7068 121.111 54.4413 121.192 54.1375C121.274 53.8304 121.314 53.4945 121.314 53.1243C121.314 52.5827 121.236 52.1393 121.082 51.7953C120.928 51.4504 120.739 51.1945 120.51 51.0275C120.283 50.8596 120.063 50.7505 119.851 50.7008C119.638 50.651 119.441 50.6252 119.265 50.6252C118.72 50.6252 118.243 50.8089 117.832 51.1753C117.424 51.5418 117.217 52.1933 117.217 53.1243C117.217 53.4883 117.266 53.8543 117.363 54.225C117.462 54.5967 117.663 54.922 117.969 55.2028C118.272 55.4827 118.707 55.6224 119.266 55.6224L119.265 55.6214ZM125.055 50.8041V52.6019H126.941C127.275 52.6019 127.591 52.6464 127.894 52.7329C128.194 52.8191 128.452 52.9951 128.667 53.2596C128.881 53.5223 128.987 53.8959 128.987 54.3815C128.987 54.6642 128.934 54.933 128.825 55.1918C128.715 55.4497 128.51 55.6693 128.205 55.8482C127.905 56.028 127.486 56.1189 126.947 56.1189L124.231 56.1185V50.1277H128.583V50.8032L125.055 50.8041ZM125.055 53.2769V55.442H126.772C127.69 55.442 128.146 55.0904 128.146 54.391C128.146 53.6486 127.688 53.2783 126.772 53.2783H125.055V53.2769ZM131.811 54.9455L135.078 50.1272H135.899V56.118H135.077V51.2653L131.811 56.118H130.988V50.1272H131.811V54.9455ZM137.661 56.1185V55.4167C137.731 55.4339 137.806 55.442 137.882 55.442C138.698 55.442 139.107 54.5288 139.107 52.7047V50.1277H142.95V56.1185H142.127V50.8041H139.93V52.8784C139.93 54.0753 139.752 54.9215 139.403 55.4128C139.052 55.9061 138.598 56.1524 138.037 56.1524C137.952 56.1534 137.828 56.1419 137.662 56.1185H137.661ZM146.165 50.1277V52.5665H147.925C148.203 52.5665 148.491 52.611 148.784 52.699C149.082 52.7865 149.341 52.9654 149.567 53.2329C149.791 53.5012 149.904 53.8763 149.904 54.3633C149.904 55.0153 149.705 55.4698 149.305 55.7305C148.906 55.9879 148.445 56.118 147.926 56.118H145.343V50.1272L146.166 50.1277H146.165ZM146.165 53.2434V55.4425H147.828C147.986 55.4425 148.156 55.4152 148.341 55.3607C148.526 55.3057 148.693 55.1971 148.84 55.0301C148.989 54.8656 149.063 54.634 149.063 54.3379C149.063 53.6079 148.617 53.2424 147.724 53.2424L146.166 53.2429L146.165 53.2434ZM152.655 53.3037V56.1185H151.832V50.1277H152.655V52.6258H155.737V50.1277H156.56V56.1185H155.737V53.3037H152.655ZM159.636 54.569L159.057 56.1199H158.175L160.496 50.1286L161.371 50.1291L163.69 56.1199H162.804L162.227 54.569H159.636ZM159.863 53.8935H162.003L160.934 50.9409L159.864 53.8935H159.863ZM169.21 53.7375H167.819L166.321 56.1175H165.304L166.971 53.6529C166.779 53.6414 166.589 53.6031 166.395 53.539C166.203 53.474 166.022 53.3749 165.855 53.2367C165.688 53.1018 165.557 52.9257 165.457 52.7057C165.356 52.4861 165.306 52.2225 165.306 51.9135C165.306 51.4552 165.451 51.0414 165.74 50.673C166.027 50.3066 166.587 50.1248 167.418 50.1248H170.034V56.1165H169.212L169.21 53.7375ZM169.21 50.8036H167.487C166.976 50.8036 166.625 50.918 166.434 51.1509C166.242 51.3825 166.145 51.6418 166.145 51.9245C166.145 52.2536 166.255 52.5253 166.474 52.742C166.692 52.9549 167.069 53.063 167.6 53.063H169.211L169.21 50.8036ZM179.6 54.1341H180.423C180.386 54.4561 180.287 54.7766 180.13 55.0981C179.976 55.4191 179.709 55.6984 179.333 55.9391C178.957 56.1792 178.457 56.2974 177.83 56.2974C177.197 56.2974 176.661 56.1663 176.221 55.9013C175.779 55.6386 175.453 55.2746 175.239 54.8082C175.022 54.3446 174.916 53.817 174.916 53.2257C174.916 52.9607 174.935 52.6703 174.98 52.356C175.02 52.0417 175.136 51.6939 175.319 51.3165C175.501 50.9361 175.795 50.6123 176.198 50.3482C176.605 50.0808 177.139 49.9488 177.803 49.9488C178.377 49.9488 178.849 50.0397 179.214 50.221C179.578 50.4032 179.851 50.6462 180.025 50.9519C180.201 51.2552 180.307 51.5973 180.343 51.979H179.522C179.488 51.6269 179.341 51.3126 179.078 51.0385C178.818 50.762 178.392 50.6252 177.804 50.6252C177.419 50.6252 177.092 50.7003 176.829 50.8505C176.565 50.9979 176.358 51.1969 176.207 51.4466C176.054 51.6944 175.945 51.968 175.885 52.2632C175.825 52.5588 175.793 52.8688 175.793 53.1932C175.793 53.5108 175.836 53.8146 175.922 54.1064C176.009 54.4006 176.138 54.6599 176.313 54.8885C176.488 55.1153 176.705 55.2947 176.967 55.4277C177.23 55.5592 177.53 55.6238 177.87 55.6238C178.213 55.6238 178.513 55.5554 178.768 55.4186C179.026 55.2813 179.226 55.0995 179.364 54.8708C179.504 54.6407 179.585 54.3963 179.601 54.1337L179.6 54.1341ZM183.224 52.6865H186.436V53.3611H183.224V55.4406L186.867 55.4415V56.117H182.403V50.1262H186.77V50.8022H183.224V52.6865ZM190.031 50.8036H188.035V50.1277H192.842V50.8036H190.852V56.1175H190.031V50.8036ZM195.427 50.1277V52.5665H197.188C197.465 52.5665 197.753 52.611 198.046 52.699C198.343 52.7865 198.603 52.9654 198.83 53.2329C199.054 53.5012 199.166 53.8763 199.166 54.3633C199.166 55.0153 198.967 55.4698 198.566 55.7305C198.167 55.9879 197.706 56.118 197.188 56.118H194.605V50.1272L195.427 50.1277H195.427ZM195.427 53.2434V55.4425H197.09C197.247 55.4425 197.419 55.4152 197.603 55.3607C197.788 55.3057 197.955 55.1971 198.103 55.0301C198.25 54.8656 198.325 54.634 198.325 54.3379C198.325 53.6079 197.879 53.2424 196.986 53.2424L195.427 53.2429L195.427 53.2434Z" fill="white"/>
<path d="M274.694 49.712H276.288C276.721 49.712 277.056 49.6263 277.293 49.456C277.531 49.2852 277.65 49.0355 277.65 48.7074C277.65 48.3055 277.492 48.0439 277.177 47.9233C277.427 47.7377 277.552 47.5085 277.552 47.2363C277.552 46.9168 277.436 46.6876 277.202 46.5494C276.969 46.4111 276.613 46.3418 276.133 46.3418H274.694V49.712H274.694ZM276.237 48.3184C276.461 48.3184 276.626 48.3481 276.729 48.406C276.833 48.4643 276.885 48.5581 276.885 48.6878C276.885 48.925 276.662 49.0441 276.217 49.0441H275.433V48.318H276.237L276.237 48.3184ZM276.113 47.0091C276.347 47.0091 276.517 47.0311 276.626 47.0742C276.734 47.1172 276.788 47.2038 276.788 47.3335C276.788 47.5626 276.626 47.6769 276.302 47.6769H275.433V47.0091H276.113ZM278.168 49.712H278.907V47.5994L280.015 48.9733L281.059 47.6186V49.712H281.797V46.3418H281.188L280.009 47.8712L278.829 46.3418H278.168V49.712H278.168ZM285.057 48.6361C284.837 48.9341 284.537 49.0834 284.156 49.0834C283.867 49.0834 283.627 49.014 283.437 48.8758C283.247 48.7375 283.137 48.5385 283.107 48.2792H285.608C285.634 48.0764 285.647 47.9185 285.647 47.8061C285.647 47.344 285.498 46.9713 285.2 46.6886C284.902 46.4054 284.524 46.2638 284.066 46.2638C283.521 46.2638 283.097 46.4284 282.792 46.7565C282.488 47.0847 282.336 47.5061 282.336 48.0204C282.336 48.5519 282.501 48.9762 282.831 49.2939C283.162 49.6115 283.599 49.7703 284.144 49.7703C284.714 49.7703 285.17 49.5412 285.511 49.0834L285.057 48.6361ZM284.033 46.9321C284.275 46.9321 284.47 46.9924 284.617 47.1134C284.764 47.2344 284.852 47.4095 284.882 47.6382H283.113C283.161 47.4176 283.265 47.245 283.424 47.1196C283.584 46.9943 283.787 46.9316 284.033 46.9316V46.9321ZM288.694 48.604C288.482 48.9236 288.199 49.0839 287.845 49.0839C287.508 49.0839 287.237 48.9834 287.032 48.7825C286.827 48.5816 286.724 48.328 286.724 48.0214C286.724 47.7056 286.821 47.4487 287.016 47.2497C287.21 47.0507 287.46 46.9517 287.767 46.9517C288.122 46.9517 288.409 47.0986 288.629 47.3923L289.18 47.0297C289.068 46.8005 288.883 46.6159 288.626 46.4757C288.369 46.3351 288.072 46.2647 287.735 46.2647C287.207 46.2647 286.78 46.4312 286.451 46.7642C286.123 47.0967 285.959 47.5157 285.959 48.0218C285.959 48.5485 286.126 48.9719 286.458 49.2919C286.791 49.612 287.23 49.7718 287.774 49.7718C288.077 49.7718 288.359 49.6991 288.623 49.5546C288.886 49.4096 289.085 49.2058 289.219 48.9423L288.694 48.605L288.694 48.604ZM289.329 47.0292H290.547V49.7124H291.287V47.0292H292.504V46.3422H289.329V47.0292ZM295.311 48.6361C295.091 48.9341 294.79 49.0834 294.41 49.0834C294.12 49.0834 293.88 49.014 293.691 48.8758C293.5 48.7375 293.39 48.5385 293.36 48.2792H295.862C295.888 48.0764 295.9 47.9185 295.9 47.8061C295.9 47.344 295.752 46.9713 295.453 46.6886C295.155 46.4054 294.777 46.2638 294.319 46.2638C293.775 46.2638 293.35 46.4284 293.045 46.7565C292.74 47.0847 292.588 47.5061 292.588 48.0204C292.588 48.5519 292.754 48.9762 293.084 49.2939C293.415 49.6115 293.852 49.7703 294.397 49.7703C294.967 49.7703 295.423 49.5412 295.764 49.0834L295.311 48.6361H295.311ZM294.287 46.9321C294.529 46.9321 294.724 46.9924 294.87 47.1134C295.017 47.2344 295.106 47.4095 295.136 47.6382H293.367C293.414 47.4176 293.518 47.245 293.677 47.1196C293.837 46.9943 294.04 46.9316 294.287 46.9316V46.9321ZM300.541 48.604C300.33 48.9236 300.047 49.0839 299.693 49.0839C299.355 49.0839 299.085 48.9834 298.879 48.7825C298.674 48.5816 298.571 48.328 298.571 48.0214C298.571 47.7056 298.668 47.4487 298.863 47.2497C299.057 47.0507 299.308 46.9517 299.615 46.9517C299.969 46.9517 300.256 47.0986 300.477 47.3923L301.027 47.0297C300.915 46.8005 300.73 46.6159 300.473 46.4757C300.216 46.3351 299.919 46.2647 299.582 46.2647C299.055 46.2647 298.627 46.4312 298.299 46.7642C297.97 47.0967 297.807 47.5157 297.807 48.0218C297.807 48.5485 297.973 48.9719 298.306 49.2919C298.638 49.612 299.077 49.7718 299.621 49.7718C299.924 49.7718 300.207 49.6991 300.47 49.5546C300.734 49.4096 300.933 49.2058 301.067 48.9423L300.542 48.605L300.541 48.604ZM302.978 49.712H304.572C305.004 49.712 305.339 49.6263 305.577 49.456C305.814 49.2852 305.933 49.0355 305.933 48.7074C305.933 48.3055 305.776 48.0439 305.46 47.9233C305.711 47.7377 305.836 47.5085 305.836 47.2363C305.836 46.9168 305.719 46.6876 305.486 46.5494C305.253 46.4111 304.896 46.3418 304.417 46.3418H302.978V49.712H302.978ZM304.52 48.3184C304.745 48.3184 304.909 48.3481 305.013 48.406C305.117 48.4643 305.169 48.5581 305.169 48.6878C305.169 48.925 304.946 49.0441 304.501 49.0441H303.717V48.318H304.52V48.3184ZM304.397 47.0091C304.63 47.0091 304.801 47.0311 304.909 47.0742C305.017 47.1172 305.072 47.2038 305.072 47.3335C305.072 47.5626 304.909 47.6769 304.586 47.6769H303.717V47.0091H304.398H304.397ZM306.815 47.3071C307.126 47.0694 307.448 46.9507 307.781 46.9507C308.044 46.9507 308.232 47.0134 308.345 47.1388C308.457 47.2641 308.511 47.4545 308.506 47.7095C308.325 47.6487 308.094 47.6186 307.813 47.6186C307.338 47.6186 306.956 47.7075 306.669 47.8841C306.381 48.0616 306.238 48.3294 306.238 48.6878C306.238 49.0116 306.349 49.2699 306.572 49.4622C306.794 49.6546 307.091 49.7507 307.463 49.7507C307.912 49.7507 308.26 49.6149 308.506 49.3427V49.712H309.245V47.6511C309.245 47.2105 309.126 46.8689 308.886 46.6274C308.646 46.3853 308.305 46.2643 307.865 46.2643C307.589 46.2643 307.324 46.3083 307.071 46.3973C306.818 46.4858 306.612 46.6077 306.452 46.7637L306.815 47.3081L306.815 47.3071ZM307.625 49.1087C307.435 49.1087 307.284 49.0714 307.171 48.9953C307.059 48.9198 307.003 48.815 307.003 48.6811C307.003 48.383 307.299 48.2338 307.891 48.2338C308.12 48.2338 308.325 48.2639 308.506 48.3247V48.649C308.304 48.9556 308.009 49.1092 307.625 49.1092L307.625 49.1087ZM309.912 49.7115H310.651V47.599L311.759 48.9729L312.803 47.6181V49.7115H313.542V46.3413H312.932L311.753 47.8707L310.573 46.3413H309.912V49.7115H309.912ZM314.877 49.7115L316.666 47.521V49.7115H317.404V46.3413H316.763L314.974 48.5385V46.3413H314.235V49.7115H314.877Z" fill="white"/>
<path d="M296.423 18.8506C297.103 18.6655 297.409 18.8573 297.34 19.4084C294.326 23.0766 289.86 27.9982 283.943 34.1674L280.415 38.1792C277.856 41.014 280.111 40.2233 287.175 35.8188C287.661 35.9097 287.841 36.1154 287.717 36.4417C287.586 36.7617 287.253 37.1186 286.71 37.4941C286.174 37.8749 284.743 38.6647 282.433 39.8554C280.119 41.0523 278.738 41.7005 278.288 41.8062C277.837 41.9115 277.588 41.7699 277.547 41.3819C277.507 40.9992 277.931 40.0721 278.816 38.5939C281.299 34.9816 285.648 30.1275 291.853 24.0372L295.45 20.28L294.988 20.4881C288.376 24.9136 280.417 32.2214 271.123 42.4234C270.323 42.4114 270.267 41.3805 270.961 39.3249C271.655 37.2693 272.274 36.1618 272.812 36.015C273.356 35.8623 273.695 35.9977 273.834 36.4106C273.967 36.8234 273.848 37.0468 273.477 37.0688C273.1 37.0918 272.839 37.763 272.684 39.0886C282.953 27.9021 290.868 21.1559 296.423 18.8501V18.8506ZM296.084 32.4998C297.052 32.009 298.02 31.8124 298.988 31.9167C299.956 32.0147 300.48 32.6323 300.561 33.7637C300.657 35.3687 297.605 36.6952 291.398 37.7534C290.108 38.204 289.494 38.6977 289.557 39.2349C289.62 39.7722 289.878 40.0812 290.335 40.1683C290.791 40.2486 291.274 40.2979 291.786 40.3094C292.298 40.3209 294.202 39.8937 297.499 39.0283C300.789 38.1691 302.423 37.8424 302.393 38.0486C302.363 38.2547 300.819 38.8522 297.745 39.843C294.679 40.8327 292.146 41.3097 290.149 41.2795C288.791 40.9825 288.212 40.2596 288.414 39.111L288.504 38.3126L287.33 38.3829C287.217 38.1074 287.405 37.8376 287.888 37.5683C288.371 37.2985 291.101 35.6074 296.084 32.5003L296.084 32.4998ZM294.166 34.9056C290.618 36.6823 290.821 37.0669 294.765 36.0657C297.934 35.0816 299.498 34.2966 299.464 33.7273C299.429 33.1523 298.716 32.9849 297.323 33.2188L294.166 34.9056ZM301.991 31.7598L318.897 31.08C319.371 31.3641 319.349 31.6966 318.831 32.0702C318.312 32.4381 316.336 32.683 312.904 32.7931L309.971 32.8973C309.225 32.9901 307.267 32.9093 304.089 32.6558C305.052 33.5714 305.596 35.1199 305.726 37.2941C308.168 35.1156 309.899 33.9952 310.929 33.9335C311.356 33.9436 311.483 34.1588 311.322 34.5769L304.226 40.4323C303.752 40.4486 303.51 40.2405 303.496 39.8028L304.433 38.3939C304.244 35.2428 303.217 33.1585 301.346 32.1353C301.292 31.8439 301.507 31.7167 301.991 31.7598H301.991Z" fill="white"/>
<path fill-rule="evenodd" clip-rule="evenodd" d="M273.568 12.072C278.793 12.072 283.541 14.1099 287.064 17.4332L283.723 23.7062C281.352 20.7125 277.684 18.7918 273.568 18.7918C266.416 18.7918 260.618 24.5898 260.618 31.7421C260.618 38.558 265.884 44.1441 272.57 44.654L269.228 50.9309C266.851 50.3951 264.637 49.4297 262.673 48.1194V44.3991H258.514C256.802 42.3645 255.495 39.9783 254.716 37.3645C254.87 37.2248 255.023 37.0846 255.174 36.943C257.055 35.1893 258.659 33.1719 259.803 30.8623C260.936 28.5766 261.447 26.1163 261.447 23.5699C261.447 21.3492 260.962 19.3309 259.941 17.5595C263.476 14.1615 268.278 12.0724 273.568 12.0724V12.072Z" fill="#E22427"/>
<path d="M236.907 24.7955C237.687 22.9743 238.876 21.4697 240.474 20.281C242.072 19.0917 244.079 18.4976 246.493 18.4976C248.76 18.4976 250.534 19.0458 251.816 20.1418C253.098 21.2377 253.739 22.7332 253.739 24.6285C253.739 25.4461 253.618 26.245 253.376 27.0252C253.135 27.8054 252.689 28.6321 252.039 29.5056C251.388 30.3787 250.831 31.1034 250.367 31.6794C249.902 32.2553 249.104 33.0265 247.97 33.9923C246.837 34.9582 246.047 35.637 245.601 36.0269C245.156 36.4168 244.245 37.1324 242.87 38.1724C241.496 39.2129 240.678 39.8444 240.418 40.0673L231.612 46.4771V51.438H261.876V45.1951H242.145L246.604 42.6314C250.023 40.2534 252.698 38.1634 254.63 36.3608C256.562 34.5587 258.048 32.6079 259.089 30.5088C260.129 28.4092 260.649 26.0967 260.649 23.5694C260.649 20.1135 259.414 17.327 256.943 15.2092C254.472 13.0909 251.026 12.0327 246.604 12.0327C242.777 12.0327 239.47 12.934 236.683 14.736C233.896 16.5381 232.02 19.1113 231.054 22.4552L236.906 24.7964L236.907 24.7955Z" fill="#E22427"/>
<defs>
<linearGradient id="paint0_linear_13_1720" x1="173.796" y1="34.7535" x2="173.796" y2="12.0409" gradientUnits="userSpaceOnUse">
<stop stop-color="#DEDEDE"/>
<stop offset="0.368627" stop-color="white"/>
<stop offset="0.501961" stop-color="white"/>
<stop offset="0.65098" stop-color="white"/>
<stop offset="1" stop-color="#F0F0F0"/>
</linearGradient>
</defs>
</svg>
