<svg width="179" height="83" viewBox="0 0 179 83" fill="none" xmlns="http://www.w3.org/2000/svg">
<g filter="url(#filter0_d_23_3077)">
<path d="M123 34.1823C123 53.0606 107.778 68.3645 89 68.3645C70.2223 68.3645 55 53.0606 55 34.1823C55 15.3039 70.2223 0 89 0C107.778 0 123 15.3039 123 34.1823Z" fill="#54616C"/>
<path d="M90.4122 74.3621C89.6608 75.2126 88.3392 75.2126 87.5878 74.3621L75.4337 60.6053C74.3516 59.3805 75.2164 57.4452 76.8459 57.4452H101.154C102.784 57.4452 103.648 59.3805 102.566 60.6053L90.4122 74.3621Z" fill="#54616C"/>
</g>
<rect width="179" height="68" rx="5" fill="#54616C"/>
<path fill-rule="evenodd" clip-rule="evenodd" d="M163.64 15H15V41.727H124.116H163.64V15Z" fill="#E22427"/>
<path fill-rule="evenodd" clip-rule="evenodd" d="M121.634 28.363C121.634 34.8337 120.127 40.0796 118.267 40.0803H20.0137C18.1542 40.0803 16.647 34.8344 16.647 28.363C16.647 21.8919 18.1542 16.646 20.0137 16.646H118.267C120.127 16.6467 121.634 21.8923 121.634 28.363Z" fill="#FEFEFE"/>
<path fill-rule="evenodd" clip-rule="evenodd" d="M26.6195 22.3158H29.4964L34.0311 34.3788H31.0244L30.2433 32.1194H25.8705L25.1067 34.3788H22.0986L26.6188 22.3158H26.6195ZM26.4887 30.0705H29.6266L28.0654 25.4706L26.4887 30.0705ZM35.1532 22.3158H41.2177C42.2908 22.3158 43.0846 22.4904 43.5984 22.836C44.1139 23.183 44.4694 23.5624 44.6633 23.975C44.7931 24.2564 44.8721 24.5241 44.9 24.7791C44.9268 25.0333 44.9402 25.2375 44.9402 25.3891C44.9402 25.9421 44.8234 26.3864 44.5903 26.7221C44.3576 27.0582 44.1005 27.3174 43.8181 27.5018C43.6555 27.6112 43.4989 27.6951 43.3473 27.7543C43.1956 27.8139 43.0648 27.8598 42.9569 27.8922V27.9257C43.0003 27.9363 43.0429 27.9437 43.0867 27.9493C43.1304 27.9539 43.1738 27.9631 43.2164 27.974C43.7909 28.126 44.3199 28.4395 44.8016 28.917C45.2844 29.3945 45.5256 30.0871 45.5256 30.998C45.5256 32.0496 45.2516 32.8077 44.7046 33.2732C44.1559 33.7405 43.5522 34.0487 42.891 34.2003C42.5221 34.2874 42.1617 34.3389 41.8101 34.3551C41.4585 34.371 41.1566 34.3798 40.908 34.3798H35.1529V22.3169L35.1532 22.3158ZM37.9991 29.2894V32.1677H40.957C41.0445 32.1677 41.1436 32.1592 41.2579 32.143C41.3714 32.1264 41.4948 32.0908 41.6239 32.0376C41.8401 31.9505 42.0439 31.8013 42.2326 31.5897C42.423 31.3795 42.5179 31.0724 42.5179 30.6721C42.5179 30.0769 42.32 29.6974 41.9247 29.5348C41.5294 29.3719 41.0974 29.2894 40.6316 29.2894C40.621 29.2894 40.6122 29.2894 40.6076 29.2894C40.6026 29.2894 40.5942 29.2894 40.5829 29.2894H37.9984H37.9991ZM37.9991 24.5269V27.0797H40.6319C40.6869 27.0797 40.7412 27.0776 40.7945 27.0713C40.8491 27.0667 40.9038 27.0579 40.957 27.0466C41.2289 27.0032 41.4751 26.884 41.6969 26.689C41.9187 26.4936 42.0305 26.2062 42.0305 25.8278C42.0305 25.3715 41.8947 25.0488 41.6239 24.8598C41.3524 24.6708 41.0554 24.565 40.7299 24.5431C40.6971 24.5319 40.6622 24.5266 40.6234 24.5266C40.5857 24.5266 40.5459 24.5266 40.5021 24.5266H37.9987L37.9991 24.5269ZM50.2235 24.6578H46.5824V22.3162H56.7101V24.6578H53.069V34.3791H50.2235V24.6578ZM63.7658 34.7198C61.5547 34.7088 59.9861 34.0536 59.0597 32.7538C58.133 31.4522 57.6696 29.9848 57.6696 28.3471C57.6696 28.2392 57.6721 28.1274 57.6781 28.0135C57.6827 27.8993 57.6915 27.7889 57.7024 27.681C57.7994 26.2496 58.304 24.9413 59.2135 23.7546C60.1247 22.5676 61.6418 21.9741 63.7658 21.9741C65.9222 21.9741 67.4502 22.5761 68.3505 23.7793C69.2494 24.9825 69.7477 26.3043 69.8457 27.7452C69.8457 27.8439 69.8479 27.943 69.8542 28.046C69.8588 28.1489 69.8616 28.2498 69.8616 28.3468C69.8616 28.4434 69.8591 28.5443 69.8542 28.6476C69.8479 28.7506 69.8457 28.8514 69.8457 28.948C69.7477 30.39 69.2491 31.71 68.3505 32.9072C67.4502 34.1044 65.9226 34.7036 63.7658 34.7036V34.7191V34.7198ZM63.7658 32.3793C64.6654 32.3793 65.3241 32.1377 65.7413 31.6556C66.1588 31.1732 66.4424 30.6457 66.594 30.0705C66.6811 29.7563 66.7351 29.4449 66.7566 29.1356C66.7784 28.8274 66.789 28.5647 66.789 28.3475C66.789 28.1211 66.7784 27.8598 66.7566 27.5678C66.7351 27.2751 66.6864 26.9708 66.6113 26.6565C66.4706 26.0719 66.1878 25.5358 65.7653 25.0471C65.3425 24.5597 64.6763 24.3157 63.7658 24.3157C62.6715 24.3157 61.9148 24.6655 61.4972 25.3648C61.08 26.0634 60.8385 26.83 60.7747 27.6641C60.7634 27.7829 60.7553 27.8996 60.7507 28.0139C60.7443 28.1278 60.7422 28.2396 60.7422 28.3475C60.7422 28.4878 60.7443 28.6268 60.7507 28.7622C60.7553 28.898 60.7697 29.0348 60.7905 29.1769C60.8667 29.9788 61.115 30.7134 61.5388 31.3795C61.9606 32.045 62.7029 32.3793 63.7658 32.3793ZM79.8764 30.1192H82.705C82.6831 30.3692 82.6394 30.6372 82.5752 30.9246C82.5096 31.212 82.4175 31.5005 82.2984 31.7939C82.006 32.5306 81.4749 33.2087 80.7048 33.8258C79.936 34.443 78.7761 34.7522 77.2266 34.7522C75.4919 34.7522 74.2161 34.3901 73.3972 33.6633C72.5798 32.9368 72.0244 32.1352 71.732 31.2568C71.5585 30.7585 71.4468 30.2708 71.3984 29.7944C71.3501 29.3173 71.3258 28.9114 71.3258 28.5753C71.3258 26.7772 71.6375 25.424 72.26 24.5195C72.8831 23.6146 73.5683 22.9767 74.3169 22.6092C74.9122 22.3162 75.4761 22.1402 76.0075 22.0803C76.539 22.021 76.9124 21.9921 77.1296 21.9921C78.7003 21.9921 79.8707 22.2866 80.6409 22.8772C81.41 23.4676 81.9408 24.1203 82.2335 24.8358C82.3424 25.1063 82.4235 25.3779 82.4771 25.6487C82.5311 25.9202 82.5643 26.1738 82.5752 26.4125H79.7784C79.7674 26.2937 79.7431 26.1604 79.7057 26.0147C79.668 25.868 79.6112 25.7196 79.5347 25.5672C79.394 25.2639 79.1478 24.9825 78.7962 24.7223C78.4432 24.4624 77.9315 24.3316 77.2594 24.3316C76.4469 24.3316 75.8453 24.5594 75.4549 25.0153C75.0645 25.4706 74.7891 25.9689 74.6255 26.5109C74.5172 26.9006 74.4531 27.2772 74.4312 27.6404C74.4093 28.004 74.3988 28.2769 74.3988 28.4614C74.3988 29.5239 74.5553 30.3255 74.8695 30.8675C75.1848 31.4095 75.5314 31.7939 75.9112 32.0213C76.2251 32.2051 76.5199 32.3172 76.7967 32.3549C77.0732 32.3937 77.2598 32.4117 77.3567 32.4117C77.9852 32.4117 78.4679 32.2844 78.804 32.0294C79.1397 31.7752 79.3897 31.4899 79.5527 31.1753C79.6606 30.9705 79.7392 30.7694 79.7879 30.5751C79.8362 30.3798 79.8669 30.2281 79.8774 30.1192H79.8764ZM87.2893 27.1111H93.1905V29.3225H87.2893V32.0379H94.1494V34.3791H84.4442V22.3162H93.9871V24.6578H87.2897V27.1111H87.2893ZM98.409 24.6578H94.7665V22.3162H104.894V24.6578H101.253V34.3791H98.409V24.6578ZM109.252 22.3162V26.6897H112.259C113.864 26.6897 114.968 27.0688 115.576 27.8273C116.183 28.5866 116.513 29.4209 116.567 30.3308C116.567 30.3851 116.567 30.4373 116.567 30.4842C116.567 30.5342 116.567 30.5854 116.567 30.64C116.567 31.9085 116.204 32.8483 115.478 33.4608C114.753 34.072 113.674 34.3791 112.244 34.3791H106.408V22.3162H109.253H109.252ZM109.252 29.0306V32.0383H111.674C112.184 32.0383 112.623 31.9378 112.99 31.7378C113.359 31.5368 113.543 31.1387 113.543 30.5427C113.543 29.946 113.354 29.5451 112.975 29.3402C112.595 29.1339 112.135 29.0306 111.594 29.0306H109.252Z" fill="#4D4D4D"/>
<path fill-rule="evenodd" clip-rule="evenodd" d="M20.0137 40.0803V16.646C18.1542 16.646 16.647 21.8919 16.647 28.363C16.647 34.8344 18.1542 40.0803 20.0137 40.0803ZM121.634 28.363C121.634 34.8337 120.127 40.0796 118.267 40.0803V16.646C120.127 16.6467 121.634 21.8923 121.634 28.363Z" fill="#EDEDED"/>
<path fill-rule="evenodd" clip-rule="evenodd" d="M148.585 35.1987H151.533V33.4316H152.003C154.013 33.4316 155.494 32.9382 156.448 31.9494C157.403 30.962 157.88 29.7669 157.88 28.363C157.88 26.9595 157.403 25.7651 156.448 24.7763C155.494 23.7896 154.013 23.2959 152.003 23.2959H151.533V21.5273H148.585V23.2959H148.115C146.105 23.2959 144.623 23.7896 143.67 24.7763C142.715 25.7651 142.238 26.9591 142.238 28.363C142.238 29.7665 142.715 30.962 143.67 31.9494C144.623 32.9382 146.105 33.4316 148.115 33.4316H148.585V35.1987ZM130.805 22.234V34.7283H133.751V30.4345H136.563C136.821 30.4345 137.127 30.4197 137.481 30.3921C137.834 30.3643 138.197 30.2938 138.567 30.1823C139.229 29.9905 139.837 29.6061 140.394 29.0288C140.95 28.4505 141.228 27.5322 141.228 26.2754C141.228 25.2097 140.905 24.2695 140.259 23.456C139.613 22.6421 138.404 22.2344 136.631 22.2344H130.805V22.234ZM133.751 24.6761V28.01H136.059C136.676 28.01 137.182 27.8947 137.573 27.6644C137.966 27.4349 138.163 26.9768 138.163 26.2923C138.163 25.6519 137.979 25.2231 137.608 25.0048C137.238 24.7865 136.721 24.6761 136.059 24.6761H133.752H133.751ZM148.854 31.0738V25.6519H148.619C147.452 25.6519 146.607 25.891 146.085 26.3678C145.563 26.8452 145.301 27.51 145.301 28.3627C145.301 29.3508 145.607 30.0501 146.22 30.4602C146.831 30.8686 147.631 31.0738 148.619 31.0738H148.854H148.854ZM151.262 31.0738H151.499C152.497 31.0738 153.3 30.8689 153.907 30.4602C154.512 30.0501 154.815 29.3511 154.815 28.3627C154.815 27.51 154.554 26.8452 154.033 26.3678C153.511 25.8906 152.666 25.6519 151.499 25.6519H151.262V31.0738H151.262Z" fill="url(#paint0_linear_23_3077)"/>
<path fill-rule="evenodd" clip-rule="evenodd" d="M19.0964 52.1659V51.5043H18.8446C18.651 51.5043 18.4419 51.4825 18.2197 51.4398C17.9972 51.3975 17.7764 51.3143 17.5582 51.1933C17.3395 51.0731 17.159 50.8936 17.0147 50.6562C16.8705 50.4196 16.7979 50.1181 16.7979 49.7524C16.7979 49.2795 16.9142 48.9124 17.148 48.6528C17.3801 48.3933 17.6491 48.2202 17.9556 48.1334C18.2624 48.0477 18.5579 48.004 18.845 48.004H19.0964V47.3364H19.7029V48.004H19.9544C20.2471 48.004 20.5465 48.0474 20.8515 48.1323C21.1573 48.2187 21.4256 48.3919 21.6545 48.6507C21.8858 48.911 22.0004 49.2788 22.0004 49.7531C22.0004 50.1357 21.9221 50.4478 21.7638 50.6887C21.6051 50.9295 21.4115 51.108 21.183 51.2229C20.9552 51.3386 20.7348 51.4144 20.5235 51.4511C20.3127 51.4878 20.124 51.5061 19.9537 51.5061H19.7026V52.168L19.096 52.1659H19.0964ZM19.0964 51.0385V48.4712H18.9292C17.9383 48.4712 17.4435 48.8983 17.4435 49.7528C17.4435 49.9608 17.4767 50.1586 17.5423 50.3448C17.6068 50.5303 17.7503 50.694 17.9725 50.8311C18.1933 50.9697 18.5128 51.0381 18.9289 51.0381L19.0964 51.0385ZM19.7029 51.0385H19.8775C20.8624 51.0385 21.3554 50.6093 21.3554 49.7524C21.3554 49.2393 21.2063 48.8972 20.9055 48.7276C20.605 48.5559 20.2633 48.4716 19.8775 48.4716L19.7029 48.4709V51.0381V51.0385ZM24.0927 49.4735H26.4603V49.9707H24.0927V51.5036L26.7774 51.5043V52.0023H23.4868V47.5861H26.7079V48.0844H24.0927V49.4735ZM31.5825 51.5047H32.2335L32.176 52.9996L31.646 52.9999V52.003H28.135V52.9996L27.6054 52.9999L27.5542 51.505H27.9601C28.5332 50.8227 28.8188 49.8205 28.8188 48.4959V47.5875H31.5822V51.505L31.5825 51.5047ZM30.9753 48.0854H29.4257V48.6352C29.4257 49.0203 29.4056 49.3705 29.3661 49.6882C29.3256 50.0045 29.2498 50.3149 29.1397 50.6196C29.0304 50.9242 28.8784 51.2187 28.6838 51.504L30.9749 51.5047L30.9753 48.0858V48.0854ZM34.1409 49.4735H36.5086V49.9707H34.1409V51.5036L36.8246 51.5043V52.0023H33.5337V47.5861H36.7555V48.0844H34.1413V49.4735H34.1409ZM38.1509 47.5868H39.9906C41.0105 47.5868 41.5201 48.0089 41.5201 48.8546C41.5201 49.7803 40.9907 50.2422 39.9331 50.2422H38.7567V52.0026H38.1509L38.1505 47.5868H38.1509ZM38.7567 48.0851V49.7443H39.8683C40.2368 49.7443 40.5013 49.6685 40.661 49.5182C40.8211 49.3663 40.9008 49.1497 40.9008 48.8673C40.9008 48.5837 40.8126 48.3834 40.6374 48.2639C40.4604 48.144 40.204 48.084 39.869 48.084L38.7564 48.0847L38.7567 48.0851ZM43.4434 50.8608L43.0167 52.004H42.3657L44.0757 47.5875L44.7214 47.5879L46.4321 52.004H45.7786L45.354 50.8608H43.443H43.4434ZM43.6102 50.3628H45.1886L44.3987 48.1863L43.6102 50.3628ZM47.1571 52.0026V51.4853C47.2089 51.498 47.2629 51.504 47.3204 51.504C47.9213 51.504 48.2228 50.8308 48.2228 49.4862V47.5865H51.0559V52.0026H50.449V48.0851H48.8293V49.6142C48.8293 50.4965 48.6999 51.1203 48.4418 51.4825C48.1826 51.8461 47.8465 52.0277 47.4329 52.0277C47.3704 52.0284 47.2784 52.0199 47.1571 52.0026ZM53.4257 47.5865V49.3842H54.7231C54.928 49.3842 55.1399 49.417 55.3572 49.4819C55.5747 49.5465 55.7673 49.6783 55.9337 49.8755C56.0995 50.0733 56.1823 50.3498 56.1823 50.7088C56.1823 51.1894 56.0339 51.5244 55.7408 51.7166C55.4453 51.9064 55.1064 52.0023 54.7231 52.0023H52.8188V47.5861L53.4257 47.5865ZM53.4257 49.8832V51.5043H54.6512C54.7686 51.5043 54.8948 51.4842 55.031 51.444C55.1678 51.4035 55.2905 51.3234 55.3991 51.2004C55.5081 51.079 55.5631 50.9084 55.5631 50.6901C55.5631 50.1519 55.2341 49.8825 54.575 49.8825L53.4257 49.8829V49.8832ZM58.2111 49.9277V52.0026H57.6028V47.5865H58.2111V49.428H60.4828V47.5865H61.0887V52.0026H60.4828V49.9277H58.2111ZM63.3573 50.8604L62.9306 52.0033H62.2789L63.9903 47.5865H64.6356L66.347 52.0033H65.6925L65.2682 50.8597L63.3573 50.8604ZM63.5244 50.3625H65.1007L64.3126 48.1859L63.5244 50.3625ZM70.414 50.2475H69.3896L68.2834 52.0019H67.5365L68.7619 50.1851C68.6219 50.1766 68.4801 50.1484 68.337 50.1012C68.1949 50.0532 68.063 49.9802 67.9402 49.8783C67.8179 49.7788 67.7209 49.6491 67.6461 49.4869C67.5721 49.325 67.5368 49.1307 67.5368 48.9029C67.5368 48.565 67.6433 48.26 67.8545 47.9885C68.0675 47.7183 68.4805 47.5843 69.0916 47.5843H71.0217V52.0012H70.4144V50.2468L70.4137 50.2475H70.414ZM70.414 48.0847H69.1435C68.7693 48.0847 68.5108 48.169 68.3691 48.3408C68.2273 48.5114 68.1561 48.7026 68.1561 48.911C68.1561 49.1536 68.2365 49.3539 68.3973 49.5137C68.5574 49.6706 68.8342 49.7503 69.2274 49.7503H70.414V48.0847ZM75.3807 50.8604L74.9537 52.0037H74.303L76.0141 47.5872L76.659 47.5875L78.3704 52.0037H77.7177L77.2924 50.8604H75.3807ZM75.5479 50.3625H77.1245L76.3378 48.1859L75.5479 50.3625ZM79.5596 47.5865H81.5411C81.7872 47.5865 81.997 47.6164 82.1712 47.6736C82.3444 47.7324 82.4847 47.8111 82.5905 47.9134C82.6953 48.0163 82.7718 48.1345 82.8183 48.2685C82.8656 48.4025 82.8892 48.5495 82.8892 48.7086C82.8892 48.8532 82.8578 48.9928 82.7968 49.1293C82.7358 49.265 82.6491 49.3797 82.5338 49.4745C82.4181 49.5683 82.2855 49.629 82.1342 49.6561V49.6762C82.3677 49.7125 82.5853 49.812 82.7838 49.9781C82.9841 50.1417 83.0835 50.4073 83.0835 50.7722C83.0835 51.0237 83.0299 51.2395 82.9234 51.4229C82.8169 51.6059 82.6434 51.7484 82.4051 51.8496C82.1642 51.9508 81.8539 52.0037 81.4702 52.0037H79.5599V47.5865L79.5588 47.5868L79.5596 47.5865ZM80.1654 48.0847V49.4604H81.3856C81.7082 49.4604 81.936 49.3938 82.07 49.2629C82.2026 49.1303 82.2703 48.9681 82.2703 48.7724C82.2703 48.6049 82.2129 48.4466 82.0982 48.302C81.9833 48.1567 81.7512 48.0847 81.406 48.0847H80.165H80.1654ZM80.1654 49.9583V51.5036H81.4254C81.6148 51.5036 81.7879 51.4835 81.9406 51.4433C82.093 51.4028 82.2192 51.3248 82.3172 51.2095C82.4146 51.0939 82.4625 50.9313 82.4625 50.7215C82.4625 50.4411 82.3708 50.2426 82.185 50.1301C82.0006 50.0151 81.7463 49.9583 81.425 49.9583H80.1654ZM85.6811 48.0847H84.2081V47.5865H87.7522V48.0847H86.2873V52.0019H85.6815L85.6808 48.0847H85.6811ZM90.9486 52.1345C90.6083 52.1345 90.3029 52.0809 90.0335 51.9719C89.7648 51.8637 89.5387 51.7078 89.3543 51.504C89.172 51.2995 89.0323 51.0537 88.9357 50.7638C88.8415 50.4721 88.7943 50.1484 88.7943 49.7944C88.7943 49.3916 88.8511 49.0422 88.9664 48.7424C89.0806 48.4427 89.2397 48.2001 89.4389 48.0093C89.6375 47.8192 89.8653 47.6803 90.1259 47.5893C90.3829 47.5001 90.6587 47.4556 90.9503 47.4556C91.2483 47.4556 91.5266 47.4986 91.7833 47.5879C92.0425 47.6774 92.2696 47.8174 92.4688 48.005C92.6695 48.1951 92.8211 48.4384 92.9379 48.7392C93.0507 49.0401 93.1089 49.3902 93.1089 49.7951C93.1089 50.1555 93.0613 50.4792 92.9689 50.7659C92.874 51.053 92.7365 51.2991 92.5507 51.5043C92.3669 51.7085 92.1398 51.8644 91.8693 51.973C91.5971 52.0816 91.2896 52.1352 90.9489 52.1352L90.9486 52.1345ZM90.9472 51.6362C91.2032 51.6362 91.4268 51.5925 91.6179 51.5043C91.8097 51.4148 91.9677 51.2875 92.0919 51.1245C92.2174 50.962 92.3094 50.7663 92.3687 50.5423C92.4286 50.3159 92.4583 50.0684 92.4583 49.7954C92.4583 49.3962 92.4018 49.0693 92.2876 48.8158C92.174 48.5615 92.034 48.3729 91.8658 48.2498C91.6987 48.126 91.5375 48.0456 91.3799 48.0089C91.2226 47.9722 91.0784 47.9532 90.9465 47.9532C90.5473 47.9532 90.1925 48.0886 89.891 48.3587C89.5902 48.6289 89.4379 49.1092 89.4379 49.7954C89.4379 50.0638 89.4749 50.3336 89.5482 50.6069C89.6195 50.8809 89.7676 51.1207 89.9929 51.3277C90.2165 51.534 90.5363 51.6369 90.9475 51.6369L90.9472 51.6362ZM96.6886 52.0026L95.2181 48.2942H95.2047L95.2177 48.4635V52.0023H94.6112V47.5861H95.5227L96.9354 51.2201L98.3474 47.5861H99.2576V52.0023H98.6504V48.4635L98.6623 48.2942H98.643L97.1781 52.0037H96.6865V52.0026H96.6886ZM102.919 52.1345C102.577 52.1345 102.272 52.0809 102.004 51.9719C101.734 51.8637 101.507 51.7078 101.324 51.504C101.141 51.2995 101.001 51.0537 100.904 50.7638C100.81 50.4721 100.762 50.1484 100.762 49.7944C100.762 49.3916 100.819 49.0422 100.934 48.7424C101.049 48.4427 101.208 48.2001 101.407 48.0093C101.606 47.8192 101.835 47.6803 102.093 47.5893C102.351 47.5001 102.625 47.4556 102.919 47.4556C103.215 47.4556 103.494 47.4986 103.753 47.5879C104.011 47.6774 104.239 47.8174 104.437 48.005C104.637 48.1951 104.791 48.4384 104.906 48.7392C105.018 49.0401 105.075 49.3902 105.075 49.7951C105.075 50.1555 105.027 50.4792 104.936 50.7659C104.843 51.053 104.704 51.2991 104.518 51.5043C104.335 51.7085 104.107 51.8644 103.836 51.973C103.566 52.0816 103.259 52.1352 102.919 52.1352L102.919 52.1345ZM102.918 51.6362C103.174 51.6362 103.397 51.5925 103.588 51.5043C103.78 51.4148 103.935 51.2875 104.062 51.1245C104.185 50.962 104.279 50.7663 104.339 50.5423C104.399 50.3159 104.429 50.0684 104.429 49.7954C104.429 49.3962 104.371 49.0693 104.257 48.8158C104.144 48.5615 104.005 48.3729 103.836 48.2498C103.669 48.126 103.506 48.0456 103.35 48.0089C103.193 47.9722 103.048 47.9532 102.918 47.9532C102.516 47.9532 102.164 48.0886 101.862 48.3587C101.561 48.6289 101.408 49.1092 101.408 49.7954C101.408 50.0638 101.444 50.3336 101.516 50.6069C101.589 50.8809 101.737 51.1207 101.962 51.3277C102.186 51.534 102.507 51.6369 102.919 51.6369L102.918 51.6362ZM107.186 48.0851V49.4103H108.576C108.823 49.4103 109.056 49.4431 109.279 49.507C109.5 49.5704 109.69 49.7002 109.849 49.8952C110.007 50.0888 110.085 50.3642 110.085 50.7222C110.085 50.9306 110.045 51.1288 109.965 51.3196C109.884 51.5096 109.733 51.6715 109.509 51.8034C109.287 51.936 108.979 52.003 108.581 52.003L106.579 52.0026V47.5865H109.787V48.0844L107.186 48.0851ZM107.186 49.9079V51.504H108.452C109.129 51.504 109.465 51.2448 109.465 50.7292C109.465 50.1819 109.127 49.909 108.452 49.909H107.186V49.9079ZM112.167 51.1379L114.575 47.5861H115.18V52.0023H114.574V48.425L112.166 52.0023H111.56V47.5861H112.167V51.1379ZM116.479 52.0026V51.4853C116.531 51.498 116.586 51.504 116.642 51.504C117.243 51.504 117.545 50.8308 117.545 49.4862V47.5865H120.378V52.0026H119.771V48.0851H118.151V49.6142C118.151 50.4965 118.02 51.1203 117.763 51.4825C117.505 51.8461 117.17 52.0277 116.756 52.0277C116.693 52.0284 116.602 52.0199 116.479 52.0026H116.479ZM122.748 47.5865V49.3842H124.045C124.25 49.3842 124.463 49.417 124.678 49.4819C124.898 49.5465 125.089 49.6783 125.256 49.8755C125.421 50.0733 125.504 50.3498 125.504 50.7088C125.504 51.1894 125.357 51.5244 125.062 51.7166C124.768 51.9064 124.429 52.0023 124.046 52.0023H122.142V47.5861L122.748 47.5865H122.748ZM122.748 49.8832V51.5043H123.973C124.09 51.5043 124.216 51.4842 124.352 51.444C124.488 51.4035 124.611 51.3234 124.72 51.2004C124.829 51.079 124.884 50.9084 124.884 50.6901C124.884 50.1519 124.555 49.8825 123.897 49.8825L122.748 49.8829L122.748 49.8832ZM127.532 49.9277V52.0026H126.925V47.5865H127.532V49.428H129.804V47.5865H130.411V52.0026H129.804V49.9277H127.532ZM132.678 50.8604L132.251 52.0037H131.601L133.312 47.5872L133.957 47.5875L135.666 52.0037H135.014L134.588 50.8604H132.678ZM132.846 50.3625H134.423L133.635 48.1859L132.846 50.3625H132.846ZM139.736 50.2475H138.711L137.606 52.0019H136.857L138.085 50.1851C137.944 50.1766 137.804 50.1484 137.66 50.1012C137.519 50.0532 137.385 49.9802 137.263 49.8783C137.139 49.7788 137.043 49.6491 136.969 49.4869C136.894 49.325 136.858 49.1307 136.858 48.9029C136.858 48.565 136.965 48.26 137.178 47.9885C137.389 47.7183 137.802 47.5843 138.415 47.5843H140.343V52.0012H139.737L139.736 50.2475ZM139.736 48.0847H138.465C138.089 48.0847 137.83 48.169 137.689 48.3408C137.548 48.5114 137.477 48.7026 137.477 48.911C137.477 49.1536 137.557 49.3539 137.719 49.5137C137.88 49.6706 138.157 49.7503 138.549 49.7503H139.737L139.736 48.0847ZM147.395 50.5399H148.002C147.974 50.7772 147.902 51.0135 147.785 51.2504C147.672 51.4871 147.476 51.693 147.198 51.8704C146.921 52.0474 146.552 52.1345 146.09 52.1345C145.624 52.1345 145.228 52.0379 144.904 51.8425C144.578 51.6489 144.338 51.3806 144.18 51.0367C144.02 50.695 143.942 50.3061 143.942 49.8702C143.942 49.6748 143.956 49.4608 143.989 49.2291C144.019 48.9974 144.104 48.741 144.239 48.4628C144.373 48.1824 144.59 47.9437 144.887 47.749C145.187 47.5519 145.581 47.4546 146.07 47.4546C146.493 47.4546 146.841 47.5216 147.11 47.6552C147.379 47.7896 147.58 47.9687 147.708 48.1941C147.838 48.4176 147.916 48.6698 147.943 48.9512H147.338C147.312 48.6916 147.204 48.46 147.01 48.2579C146.818 48.0541 146.504 47.9532 146.071 47.9532C145.787 47.9532 145.546 48.0086 145.352 48.1193C145.157 48.2279 145.005 48.3746 144.893 48.5587C144.781 48.7414 144.701 48.9431 144.656 49.1607C144.612 49.3786 144.589 49.6071 144.589 49.8462C144.589 50.0804 144.62 50.3043 144.683 50.5194C144.748 50.7363 144.843 50.9274 144.972 51.096C145.1 51.2631 145.261 51.3954 145.454 51.4934C145.647 51.5904 145.869 51.638 146.12 51.638C146.372 51.638 146.594 51.5876 146.781 51.4867C146.972 51.3855 147.119 51.2515 147.221 51.0829C147.324 50.9133 147.383 50.7331 147.395 50.5395L147.395 50.5399ZM150.066 49.4727H152.434V49.97H150.066V51.5029L152.752 51.5036V52.0016H149.461V47.5854H152.681V48.0837H150.066V49.4727ZM155.084 48.0847H153.613V47.5865H157.157V48.0847H155.69V52.0019H155.084V48.0847ZM159.062 47.5865V49.3842H160.36C160.564 49.3842 160.776 49.417 160.993 49.4819C161.211 49.5465 161.403 49.6783 161.57 49.8755C161.736 50.0733 161.818 50.3498 161.818 50.7088C161.818 51.1894 161.671 51.5244 161.376 51.7166C161.082 51.9064 160.742 52.0023 160.36 52.0023H158.456V47.5861L159.062 47.5865H159.062ZM159.062 49.8832V51.5043H160.287C160.404 51.5043 160.53 51.4842 160.666 51.444C160.802 51.4035 160.926 51.3234 161.034 51.2004C161.143 51.079 161.198 50.9084 161.198 50.6901C161.198 50.1519 160.869 49.8825 160.211 49.8825L159.062 49.8829L159.062 49.8832Z" fill="white"/>
<defs>
<filter id="filter0_d_23_3077" x="51" y="0" width="76" height="83" filterUnits="userSpaceOnUse" color-interpolation-filters="sRGB">
<feFlood flood-opacity="0" result="BackgroundImageFix"/>
<feColorMatrix in="SourceAlpha" type="matrix" values="0 0 0 0 0 0 0 0 0 0 0 0 0 0 0 0 0 0 127 0" result="hardAlpha"/>
<feOffset dy="4"/>
<feGaussianBlur stdDeviation="2"/>
<feComposite in2="hardAlpha" operator="out"/>
<feColorMatrix type="matrix" values="0 0 0 0 0 0 0 0 0 0 0 0 0 0 0 0 0 0 0.15 0"/>
<feBlend mode="normal" in2="BackgroundImageFix" result="effect1_dropShadow_23_3077"/>
<feBlend mode="normal" in="SourceGraphic" in2="effect1_dropShadow_23_3077" result="shape"/>
</filter>
<linearGradient id="paint0_linear_23_3077" x1="143.116" y1="36.2531" x2="143.116" y2="19.5102" gradientUnits="userSpaceOnUse">
<stop stop-color="#DEDEDE"/>
<stop offset="0.368627" stop-color="white"/>
<stop offset="0.501961" stop-color="white"/>
<stop offset="0.65098" stop-color="white"/>
<stop offset="1" stop-color="#F0F0F0"/>
</linearGradient>
</defs>
</svg>
