<svg width="218" height="44" viewBox="0 0 218 44" fill="none" xmlns="http://www.w3.org/2000/svg">
<path fill-rule="evenodd" clip-rule="evenodd" d="M147.498 0H147.499C147.644 0 147.763 0.118421 147.763 0.263195V42.8448C147.763 42.9886 147.644 43.1074 147.499 43.1074H147.498C147.353 43.1074 147.234 42.9889 147.234 42.8448V0.263195C147.234 0.118421 147.353 0 147.498 0Z" fill="#4D4D4D"/>
<path fill-rule="evenodd" clip-rule="evenodd" d="M137.695 4.02795H0V28.685H101.081H137.695V4.02795Z" fill="#E22427"/>
<path fill-rule="evenodd" clip-rule="evenodd" d="M98.7817 16.356C98.7817 22.3256 97.3852 27.1653 95.6623 27.1659H4.64418C2.92161 27.1659 1.52539 22.3262 1.52539 16.356C1.52539 10.3862 2.92161 5.54651 4.64418 5.54651H95.6623C97.3852 5.54716 98.7817 10.3865 98.7817 16.356Z" fill="#FEFEFE"/>
<path fill-rule="evenodd" clip-rule="evenodd" d="M10.7632 10.7773H13.4282L17.629 21.906H14.8437L14.1201 19.8216H10.0693L9.36175 21.906H6.5752L10.7625 10.7773H10.7632ZM10.642 17.9314H13.5488L12.1026 13.6877L10.642 17.9314ZM18.6685 10.7773H24.2863C25.2804 10.7773 26.0157 10.9383 26.4917 11.2572C26.9693 11.5773 27.2986 11.9273 27.4783 12.308C27.5985 12.5676 27.6717 12.8145 27.6975 13.0497C27.7223 13.2843 27.7347 13.4727 27.7347 13.6126C27.7347 14.1227 27.6266 14.5326 27.4107 14.8423C27.195 15.1524 26.9569 15.3915 26.6952 15.5616C26.5446 15.6625 26.3996 15.7399 26.2591 15.7946C26.1186 15.8496 25.9975 15.8919 25.8975 15.9218V15.9527C25.9377 15.9625 25.9772 15.9693 26.0177 15.9745C26.0582 15.9787 26.0984 15.9872 26.1379 15.9973C26.6701 16.1375 27.1601 16.4267 27.6063 16.8672C28.0536 17.3077 28.277 17.9467 28.277 18.787C28.277 19.7571 28.0232 20.4566 27.5165 20.8861C27.0082 21.3171 26.4489 21.6015 25.8364 21.7414C25.4947 21.8217 25.1608 21.8692 24.8351 21.8842C24.5094 21.8988 24.2298 21.9069 23.9995 21.9069H18.6681V10.7783L18.6685 10.7773ZM21.3047 17.2108V19.8661H24.0449C24.1259 19.8661 24.2177 19.8583 24.3236 19.8434C24.4287 19.8281 24.5431 19.7952 24.6626 19.7461C24.8629 19.6657 25.0517 19.5281 25.2265 19.3329C25.4029 19.139 25.4908 18.8556 25.4908 18.4864C25.4908 17.9372 25.3075 17.5872 24.9413 17.4372C24.5751 17.2869 24.1749 17.2108 23.7434 17.2108C23.7336 17.2108 23.7254 17.2108 23.7212 17.2108C23.7166 17.2108 23.7088 17.2108 23.6983 17.2108H21.3041H21.3047ZM21.3047 12.8171V15.1722H23.7437C23.7947 15.1722 23.845 15.1703 23.8943 15.1644C23.9449 15.1602 23.9956 15.152 24.0449 15.1416C24.2968 15.1016 24.5248 14.9917 24.7303 14.8117C24.9357 14.6315 25.0393 14.3664 25.0393 14.0173C25.0393 13.5963 24.9135 13.2986 24.6626 13.1242C24.4111 12.9499 24.136 12.8523 23.8345 12.8321C23.8041 12.8217 23.7718 12.8168 23.7359 12.8168C23.7009 12.8168 23.664 12.8168 23.6235 12.8168H21.3044L21.3047 12.8171ZM32.629 12.9378H29.2561V10.7776H38.6379V12.9378H35.265V21.9063H32.629V12.9378ZM45.174 22.2206C43.1258 22.2105 41.6727 21.606 40.8145 20.4068C39.956 19.206 39.5268 17.8523 39.5268 16.3415C39.5268 16.2419 39.5291 16.1388 39.5346 16.0337C39.5389 15.9283 39.547 15.8265 39.5572 15.7269C39.647 14.4064 40.1145 13.1994 40.957 12.1046C41.8011 11.0096 43.2065 10.462 45.174 10.462C47.1717 10.462 48.5872 11.0174 49.4212 12.1274C50.2539 13.2375 50.7155 14.4568 50.8063 15.7861C50.8063 15.8772 50.8082 15.9686 50.8141 16.0636C50.8184 16.1586 50.821 16.2517 50.821 16.3411C50.821 16.4303 50.8187 16.5233 50.8141 16.6187C50.8082 16.7136 50.8063 16.8067 50.8063 16.8958C50.7155 18.2261 50.2535 19.4438 49.4212 20.5484C48.5872 21.6529 47.172 22.2056 45.174 22.2056V22.2199V22.2206ZM45.174 20.0613C46.0074 20.0613 46.6176 19.8385 47.0041 19.3937C47.3909 18.9487 47.6535 18.462 47.794 17.9314C47.8747 17.6415 47.9247 17.3542 47.9446 17.0689C47.9648 16.7846 47.9746 16.5422 47.9746 16.3418C47.9746 16.1329 47.9648 15.8919 47.9446 15.6225C47.9247 15.3525 47.8796 15.0717 47.81 14.7818C47.6797 14.2424 47.4177 13.7479 47.0263 13.297C46.6346 12.8474 46.0175 12.6223 45.174 12.6223C44.1604 12.6223 43.4593 12.945 43.0725 13.5901C42.6861 14.2346 42.4623 14.9419 42.4032 15.7113C42.3927 15.8209 42.3852 15.9286 42.381 16.034C42.3751 16.1391 42.3731 16.2422 42.3731 16.3418C42.3731 16.4713 42.3751 16.5995 42.381 16.7244C42.3852 16.8496 42.3986 16.9759 42.4179 17.107C42.4884 17.8468 42.7184 18.5245 43.1111 19.139C43.5018 19.7529 44.1894 20.0613 45.174 20.0613ZM60.0983 17.9763H62.7186C62.6983 18.2069 62.6578 18.4542 62.5983 18.7193C62.5376 18.9845 62.4523 19.2506 62.3419 19.5213C62.0711 20.2009 61.5791 20.8265 60.8656 21.3959C60.1535 21.9652 59.079 22.2505 57.6436 22.2505C56.0367 22.2505 54.8548 21.9164 54.0962 21.2459C53.339 20.5757 52.8245 19.8362 52.5537 19.0258C52.393 18.5661 52.2894 18.1162 52.2446 17.6766C52.1999 17.2365 52.1773 16.862 52.1773 16.552C52.1773 14.8931 52.4661 13.6448 53.0427 12.8103C53.6199 11.9755 54.2547 11.387 54.9482 11.048C55.4996 10.7776 56.022 10.6153 56.5143 10.56C57.0066 10.5053 57.3526 10.4786 57.5538 10.4786C59.0088 10.4786 60.0931 10.7503 60.8065 11.2952C61.519 11.8398 62.0107 12.442 62.2818 13.1021C62.3827 13.3516 62.4579 13.6022 62.5075 13.852C62.5575 14.1025 62.5882 14.3364 62.5983 14.5567H60.0075C59.9973 14.447 59.9748 14.3241 59.9402 14.1897C59.9052 14.0544 59.8526 13.9174 59.7817 13.7769C59.6514 13.4971 59.4234 13.2375 59.0977 12.9974C58.7707 12.7576 58.2967 12.6369 57.674 12.6369C56.9213 12.6369 56.364 12.8471 56.0024 13.2677C55.6408 13.6877 55.3856 14.1474 55.2341 14.6475C55.1338 15.0069 55.0743 15.3544 55.0541 15.6895C55.0338 16.0249 55.024 16.2767 55.024 16.4469C55.024 17.4271 55.1691 18.1666 55.4601 18.6666C55.7522 19.1667 56.0733 19.5213 56.4251 19.7311C56.7159 19.9006 56.989 20.0041 57.2454 20.0389C57.5015 20.0747 57.6743 20.0913 57.7642 20.0913C58.3463 20.0913 58.7935 19.9738 59.1049 19.7386C59.4159 19.504 59.6475 19.2408 59.7984 18.9506C59.8984 18.7616 59.9712 18.5762 60.0163 18.3969C60.061 18.2167 60.0895 18.0768 60.0993 17.9763H60.0983ZM66.9654 15.2012H72.432V17.2413H66.9654V19.7464H73.3202V21.9063H64.3297V10.7776H73.1699V12.9378H66.9657V15.2012H66.9654ZM77.2661 12.9378H73.8919V10.7776H83.274V12.9378H79.9008V21.9063H77.2661V12.9378ZM87.3111 10.7776V14.8124H90.0964C91.5831 14.8124 92.6062 15.1621 93.1694 15.8619C93.7313 16.5624 94.0368 17.3321 94.0874 18.1715C94.0874 18.2216 94.0874 18.2697 94.0874 18.313C94.0874 18.3592 94.0874 18.4064 94.0874 18.4568C94.0874 19.627 93.7512 20.494 93.0786 21.0591C92.4063 21.6229 91.4067 21.9063 90.082 21.9063H84.6758V10.7776H87.3115H87.3111ZM87.3111 16.972V19.7467H89.5547C90.0268 19.7467 90.4335 19.654 90.7739 19.4696C91.1153 19.2841 91.2861 18.9168 91.2861 18.367C91.2861 17.8165 91.111 17.4466 90.7592 17.2576C90.4074 17.0673 89.9817 16.972 89.4799 16.972H87.3111Z" fill="#4D4D4D"/>
<path fill-rule="evenodd" clip-rule="evenodd" d="M4.64418 27.1659V5.54651C2.92161 5.54651 1.52539 10.3862 1.52539 16.356C1.52539 22.3262 2.92161 27.1659 4.64418 27.1659ZM98.7817 16.356C98.7817 22.3256 97.3852 27.1653 95.6623 27.1659V5.54651C97.3852 5.54716 98.7817 10.3865 98.7817 16.356Z" fill="#EDEDED"/>
<path fill-rule="evenodd" clip-rule="evenodd" d="M123.749 22.6625H126.479V21.0322H126.915C128.777 21.0322 130.148 20.5771 131.033 19.6648C131.917 18.7539 132.359 17.6513 132.359 16.3562C132.359 15.0614 131.917 13.9595 131.033 13.0472C130.148 12.1369 128.776 11.6815 126.915 11.6815H126.479V10.0499H123.749V11.6815H123.313C121.451 11.6815 120.078 12.1369 119.195 13.0472C118.311 13.9595 117.869 15.061 117.869 16.3562C117.869 17.651 118.311 18.7539 119.195 19.6648C120.078 20.5771 121.451 21.0322 123.313 21.0322H123.749V22.6625ZM107.278 10.7019V22.2285H110.007V18.2672H112.611C112.851 18.2672 113.134 18.2535 113.462 18.2282C113.789 18.2025 114.125 18.1374 114.468 18.0346C115.081 17.8576 115.645 17.503 116.161 16.9704C116.675 16.4369 116.933 15.5897 116.933 14.4302C116.933 13.4471 116.634 12.5797 116.035 11.8292C115.437 11.0783 114.317 10.7022 112.675 10.7022H107.278V10.7019ZM110.007 12.9548V16.0305H112.144C112.716 16.0305 113.185 15.9242 113.547 15.7117C113.912 15.4999 114.094 15.0773 114.094 14.4458C114.094 13.855 113.923 13.4594 113.579 13.258C113.237 13.0567 112.758 12.9548 112.145 12.9548H110.007H110.007ZM123.998 18.857V13.855H123.78C122.699 13.855 121.916 14.0756 121.432 14.5155C120.949 14.956 120.707 15.5692 120.707 16.3559C120.707 17.2675 120.99 17.9126 121.557 18.291C122.123 18.6677 122.864 18.857 123.78 18.857H123.997H123.998ZM126.228 18.857H126.448C127.372 18.857 128.116 18.668 128.678 18.291C129.239 17.9126 129.52 17.2678 129.52 16.3559C129.52 15.5692 129.278 14.956 128.795 14.5155C128.312 14.0753 127.529 13.855 126.448 13.855H126.229V18.857H126.228Z" fill="url(#paint0_linear_23_3302)"/>
<path fill-rule="evenodd" clip-rule="evenodd" d="M3.7953 38.3156V37.7052H3.56205C3.3827 37.7052 3.18898 37.6851 2.98318 37.6457C2.77704 37.6066 2.57254 37.5299 2.37033 37.4183C2.16779 37.3073 2.00053 37.1417 1.86692 36.9228C1.73331 36.7045 1.66602 36.4263 1.66602 36.089C1.66602 35.6527 1.77382 35.314 1.99041 35.0746C2.20536 34.8351 2.45461 34.6754 2.7385 34.5954C3.02271 34.5163 3.29646 34.476 3.56238 34.476H3.7953V33.8601H4.35718V34.476H4.5901C4.86124 34.476 5.13859 34.516 5.42117 34.5944C5.7044 34.6741 5.953 34.8338 6.16501 35.0726C6.37931 35.3127 6.48548 35.652 6.48548 36.0896C6.48548 36.4426 6.41296 36.7305 6.26628 36.9527C6.11928 37.1749 5.93993 37.3396 5.72824 37.4456C5.51721 37.5523 5.31304 37.6223 5.11736 37.6561C4.92201 37.6899 4.74723 37.7069 4.58945 37.7069H4.35685V38.3175L3.79497 38.3156H3.7953ZM3.7953 37.2755V34.907H3.64045C2.72249 34.907 2.26416 35.301 2.26416 36.0893C2.26416 36.2812 2.29487 36.4638 2.35563 36.6355C2.41541 36.8067 2.54837 36.9576 2.75418 37.0842C2.95868 37.212 3.25465 37.2751 3.64012 37.2751L3.7953 37.2755ZM4.35718 37.2755H4.51889C5.43129 37.2755 5.88799 36.8795 5.88799 36.089C5.88799 35.6156 5.7498 35.3 5.47115 35.1435C5.19282 34.9851 4.87627 34.9074 4.51889 34.9074L4.35718 34.9067V37.2751V37.2755ZM8.42366 35.8316H10.617V36.2903H8.42366V37.7046L10.9106 37.7052V38.1646H7.86243V34.0904H10.8463V34.5501H8.42366V35.8316ZM15.3619 37.7056H15.965L15.9117 39.0846L15.4208 39.085V38.1652H12.1684V39.0846L11.6777 39.085L11.6303 37.7059H12.0063C12.5372 37.0764 12.8018 36.1518 12.8018 34.9298V34.0917H15.3616V37.7059L15.3619 37.7056ZM14.7994 34.5511H13.364V35.0583C13.364 35.4136 13.3454 35.7366 13.3088 36.0298C13.2712 36.3216 13.201 36.6079 13.0991 36.889C12.9978 37.1701 12.857 37.4417 12.6767 37.7049L14.7991 37.7056L14.7994 34.5514V34.5511ZM17.732 35.8316H19.9253V36.2903H17.732V37.7046L20.218 37.7052V38.1646H17.1695V34.0904H20.154V34.5501H17.7323V35.8316H17.732ZM21.4466 34.0911H23.1509C24.0957 34.0911 24.5677 34.4805 24.5677 35.2607C24.5677 36.1147 24.0774 36.5409 23.0977 36.5409H22.0079V38.1649H21.4466L21.4463 34.0911H21.4466ZM22.0079 34.5508V36.0815H23.0376C23.3789 36.0815 23.6239 36.0115 23.7719 35.8729C23.9202 35.7327 23.9941 35.533 23.9941 35.2724C23.9941 35.0108 23.9124 34.826 23.75 34.7157C23.586 34.6051 23.3485 34.5498 23.0382 34.5498L22.0075 34.5505L22.0079 34.5508ZM26.3494 37.1115L25.9541 38.1662H25.3511L26.9351 34.0917L27.5333 34.0921L29.118 38.1662H28.5127L28.1193 37.1115H26.3491H26.3494ZM26.5039 36.6521H27.9661L27.2344 34.6442L26.5039 36.6521ZM29.7896 38.1649V37.6877C29.8377 37.6994 29.8876 37.7049 29.9409 37.7049C30.4975 37.7049 30.7769 37.0838 30.7769 35.8433V34.0908H33.4014V38.1649H32.8392V34.5508H31.3387V35.9614C31.3387 36.7754 31.2189 37.3509 30.9797 37.6851C30.7396 38.0205 30.4283 38.188 30.0451 38.188C29.9873 38.1887 29.902 38.1809 29.7896 38.1649ZM35.5966 34.0908V35.7493H36.7985C36.9883 35.7493 37.1846 35.7796 37.3859 35.8394C37.5874 35.899 37.7658 36.0206 37.92 36.2025C38.0735 36.385 38.1503 36.6401 38.1503 36.9713C38.1503 37.4147 38.0128 37.7238 37.7413 37.9011C37.4675 38.0761 37.1536 38.1646 36.7985 38.1646H35.0344V34.0904L35.5966 34.0908ZM35.5966 36.2097V37.7052H36.7319C36.8406 37.7052 36.9576 37.6867 37.0837 37.6496C37.2104 37.6122 37.3241 37.5383 37.4247 37.4248C37.5257 37.3129 37.5766 37.1554 37.5766 36.954C37.5766 36.4576 37.2719 36.209 36.6613 36.209L35.5966 36.2093V36.2097ZM40.0297 36.2507V38.1649H39.4661V34.0908H40.0297V35.7897H42.1341V34.0908H42.6953V38.1649H42.1341V36.2507H40.0297ZM44.7969 37.1112L44.4016 38.1656H43.7979L45.3832 34.0908H45.9811L47.5664 38.1656H46.9601L46.5671 37.1105L44.7969 37.1112ZM44.9517 36.6518H46.4119L45.6818 34.6438L44.9517 36.6518ZM51.334 36.5457H50.385L49.3602 38.1643H48.6683L49.8035 36.4882C49.6738 36.4803 49.5425 36.4543 49.4099 36.4107C49.2782 36.3665 49.156 36.2991 49.0423 36.2051C48.929 36.1134 48.8392 35.9936 48.7699 35.844C48.7013 35.6947 48.6686 35.5154 48.6686 35.3052C48.6686 34.9936 48.7673 34.7122 48.963 34.4616C49.1603 34.2124 49.5428 34.0888 50.1089 34.0888H51.8969V38.1636H51.3343V36.5451L51.3337 36.5457H51.334ZM51.334 34.5505H50.157C49.8104 34.5505 49.5709 34.6282 49.4396 34.7867C49.3083 34.9441 49.2423 35.1205 49.2423 35.3127C49.2423 35.5366 49.3168 35.7213 49.4657 35.8687C49.614 36.0135 49.8705 36.087 50.2347 36.087H51.334V34.5505ZM55.9349 37.1112L55.5393 38.1659H54.9366L56.5216 34.0914L57.1191 34.0917L58.7045 38.1659H58.0998L57.7058 37.1112H55.9349ZM56.0897 36.6518H57.5503L56.8215 34.6438L56.0897 36.6518ZM59.806 34.0908H61.6416C61.8696 34.0908 62.064 34.1184 62.2254 34.1711C62.3858 34.2255 62.5158 34.298 62.6138 34.3924C62.7108 34.4874 62.7817 34.5963 62.8249 34.72C62.8686 34.8436 62.8905 34.9793 62.8905 35.126C62.8905 35.2594 62.8614 35.3882 62.8049 35.5141C62.7484 35.6394 62.668 35.7451 62.5612 35.8326C62.4541 35.9191 62.3312 35.9751 62.1911 36.0002V36.0187C62.4074 36.0522 62.6089 36.144 62.7928 36.2972C62.9784 36.4481 63.0705 36.6931 63.0705 37.0298C63.0705 37.2618 63.0209 37.4609 62.9222 37.6301C62.8235 37.7989 62.6628 37.9304 62.442 38.0237C62.2189 38.1171 61.9314 38.1659 61.576 38.1659H59.8064V34.0908L59.8054 34.0911L59.806 34.0908ZM60.3673 34.5505V35.8196H61.4976C61.7965 35.8196 62.0075 35.7581 62.1316 35.6374C62.2545 35.5151 62.3172 35.3654 62.3172 35.1849C62.3172 35.0303 62.2639 34.8843 62.1578 34.7509C62.0513 34.6168 61.8363 34.5505 61.5165 34.5505H60.3669H60.3673ZM60.3673 36.279V37.7046H61.5345C61.7099 37.7046 61.8703 37.686 62.0118 37.6489C62.1529 37.6115 62.2698 37.5396 62.3606 37.4332C62.4508 37.3265 62.4952 37.1766 62.4952 36.983C62.4952 36.7243 62.4103 36.5412 62.2381 36.4374C62.0673 36.3313 61.8318 36.279 61.5341 36.279H60.3673ZM65.4768 34.5505H64.1123V34.0908H67.3954V34.5505H66.0384V38.1643H65.4771L65.4765 34.5505H65.4768ZM70.3564 38.2866C70.0411 38.2866 69.7582 38.2371 69.5087 38.1366C69.2597 38.0367 69.0503 37.8929 68.8795 37.7049C68.7106 37.5162 68.5812 37.2894 68.4917 37.022C68.4045 36.753 68.3607 36.4543 68.3607 36.1277C68.3607 35.7562 68.4133 35.4337 68.5201 35.1572C68.626 34.8807 68.7733 34.6568 68.9579 34.4808C69.1418 34.3055 69.3528 34.1773 69.5943 34.0934C69.8324 34.0111 70.0879 33.9701 70.358 33.9701C70.6341 33.9701 70.8918 34.0098 71.1296 34.0921C71.3697 34.1747 71.5801 34.3039 71.7647 34.4769C71.9506 34.6523 72.091 34.8768 72.1992 35.1543C72.3037 35.4318 72.3576 35.7548 72.3576 36.1283C72.3576 36.4608 72.3135 36.7595 72.2279 37.024C72.14 37.2888 72.0126 37.5159 71.8405 37.7052C71.6703 37.8936 71.4599 38.0374 71.2093 38.1376C70.9572 38.2378 70.6723 38.2872 70.3567 38.2872L70.3564 38.2866ZM70.3551 37.8269C70.5922 37.8269 70.7994 37.7866 70.9764 37.7052C71.1541 37.6226 71.3005 37.5051 71.4155 37.3548C71.5318 37.2049 71.617 37.0243 71.6719 36.8177C71.7274 36.6089 71.7549 36.3805 71.7549 36.1287C71.7549 35.7604 71.7026 35.4588 71.5968 35.2249C71.4916 34.9903 71.3619 34.8163 71.2061 34.7027C71.0512 34.5885 70.9019 34.5144 70.7559 34.4805C70.6102 34.4467 70.4766 34.4291 70.3544 34.4291C69.9846 34.4291 69.656 34.554 69.3767 34.8032C69.098 35.0525 68.9569 35.4956 68.9569 36.1287C68.9569 36.3762 68.9912 36.6251 69.0592 36.8773C69.1251 37.13 69.2624 37.3513 69.4711 37.5422C69.6782 37.7326 69.9745 37.8276 70.3554 37.8276L70.3551 37.8269ZM75.6737 38.1649L74.3115 34.7437H74.2991L74.3111 34.8999V38.1646H73.7493V34.0904H74.5937L75.9024 37.443L77.2104 34.0904H78.0536V38.1646H77.491V34.8999L77.5021 34.7437H77.4842L76.1271 38.1659H75.6717V38.1649H75.6737ZM81.4454 38.2866C81.1286 38.2866 80.8457 38.2371 80.5974 38.1366C80.3475 38.0367 80.1377 37.8929 79.9679 37.7049C79.7983 37.5162 79.6683 37.2894 79.5791 37.022C79.4913 36.753 79.4475 36.4543 79.4475 36.1277C79.4475 35.7562 79.5004 35.4337 79.6069 35.1572C79.7131 34.8807 79.8607 34.6568 80.0446 34.4808C80.2289 34.3055 80.4412 34.1773 80.6797 34.0934C80.9188 34.0111 81.1733 33.9701 81.4454 33.9701C81.7195 33.9701 81.9782 34.0098 82.2177 34.0921C82.4568 34.1747 82.6685 34.3039 82.8515 34.4769C83.0364 34.6523 83.1791 34.8768 83.2856 35.1543C83.3895 35.4318 83.4421 35.7548 83.4421 36.1283C83.4421 36.4608 83.3983 36.7595 83.314 37.024C83.2278 37.2888 83.0984 37.5159 82.9266 37.7052C82.757 37.8936 82.5457 38.0374 82.2951 38.1376C82.0449 38.2378 81.7604 38.2872 81.4458 38.2872L81.4454 38.2866ZM81.4448 37.8269C81.6813 37.8269 81.8884 37.7866 82.0648 37.7052C82.2425 37.6226 82.3869 37.5051 82.5042 37.3548C82.6185 37.2049 82.7051 37.0243 82.7606 36.8177C82.8162 36.6089 82.8439 36.3805 82.8439 36.1287C82.8439 35.7604 82.7904 35.4588 82.6852 35.2249C82.58 34.9903 82.451 34.8163 82.2948 34.7027C82.14 34.5885 81.9894 34.5144 81.8446 34.4805C81.6993 34.4467 81.5647 34.4291 81.4441 34.4291C81.0721 34.4291 80.7463 34.554 80.4657 34.8032C80.1871 35.0525 80.0456 35.4956 80.0456 36.1287C80.0456 36.3762 80.0793 36.6251 80.1459 36.8773C80.2129 37.13 80.3507 37.3513 80.5592 37.5422C80.7663 37.7326 81.0632 37.8276 81.4451 37.8276L81.4448 37.8269ZM85.3986 34.5508V35.7734H86.686C86.9143 35.7734 87.1303 35.8036 87.3371 35.8625C87.5419 35.9211 87.718 36.0408 87.865 36.2207C88.011 36.3993 88.0832 36.6534 88.0832 36.9836C88.0832 37.1759 88.0469 37.3587 87.9728 37.5347C87.8976 37.7101 87.7578 37.8594 87.5497 37.9811C87.3442 38.1034 87.0587 38.1652 86.6902 38.1652L84.8357 38.1649V34.0908H87.8078V34.5501L85.3986 34.5508ZM85.3986 36.2324V37.7049H86.5707C87.1976 37.7049 87.5092 37.4658 87.5092 36.9901C87.5092 36.4852 87.1966 36.2334 86.5707 36.2334H85.3986V36.2324ZM90.0119 37.3672L92.2428 34.0904H92.8033V38.1646H92.2421V34.8644L90.0116 38.1646H89.4497V34.0904H90.0119V37.3672ZM94.0068 38.1649V37.6877C94.0545 37.6994 94.1058 37.7049 94.1578 37.7049C94.7147 37.7049 94.994 37.0838 94.994 35.8433V34.0908H97.6186V38.1649H97.0567V34.5508H95.5559V35.9614C95.5559 36.7754 95.4347 37.3509 95.1963 37.6851C94.9568 38.0205 94.6468 38.188 94.2636 38.188C94.2051 38.1887 94.1205 38.1809 94.0071 38.1649H94.0068ZM99.8142 34.0908V35.7493H101.016C101.205 35.7493 101.402 35.7796 101.602 35.8394C101.806 35.899 101.983 36.0206 102.137 36.2025C102.29 36.385 102.367 36.6401 102.367 36.9713C102.367 37.4147 102.231 37.7238 101.958 37.9011C101.685 38.0761 101.371 38.1646 101.017 38.1646H99.2526V34.0904L99.8145 34.0908H99.8142ZM99.8142 36.2097V37.7052H100.949C101.057 37.7052 101.174 37.6867 101.3 37.6496C101.426 37.6122 101.54 37.5383 101.641 37.4248C101.742 37.3129 101.793 37.1554 101.793 36.954C101.793 36.4576 101.488 36.209 100.878 36.209L99.8145 36.2093L99.8142 36.2097ZM104.246 36.2507V38.1649H103.684V34.0908H104.246V35.7897H106.351V34.0908H106.913V38.1649H106.351V36.2507H104.246ZM109.013 37.1112L108.618 38.1659H108.015L109.6 34.0914L110.198 34.0917L111.781 38.1659H111.177L110.783 37.1112H109.013ZM109.168 36.6518H110.629L109.899 34.6438L109.169 36.6518H109.168ZM115.551 36.5457H114.601L113.578 38.1643H112.884L114.022 36.4882C113.891 36.4803 113.761 36.4543 113.628 36.4107C113.497 36.3665 113.374 36.2991 113.26 36.2051C113.146 36.1134 113.056 35.9936 112.988 35.844C112.919 35.6947 112.885 35.5154 112.885 35.3052C112.885 34.9936 112.984 34.7122 113.181 34.4616C113.377 34.2124 113.76 34.0888 114.327 34.0888H116.114V38.1636H115.552L115.551 36.5457ZM115.551 34.5505H114.374C114.026 34.5505 113.786 34.6282 113.655 34.7867C113.524 34.9441 113.458 35.1205 113.458 35.3127C113.458 35.5366 113.533 35.7213 113.682 35.8687C113.832 36.0135 114.089 36.087 114.451 36.087H115.552L115.551 34.5505ZM122.646 36.8154H123.208C123.183 37.0344 123.115 37.2524 123.008 37.471C122.903 37.6893 122.721 37.8793 122.464 38.0429C122.207 38.2062 121.865 38.2866 121.438 38.2866C121.005 38.2866 120.639 38.1975 120.339 38.0172C120.037 37.8386 119.814 37.591 119.668 37.2738C119.52 36.9586 119.447 36.5997 119.447 36.1976C119.447 36.0174 119.46 35.8199 119.491 35.6062C119.519 35.3924 119.598 35.1559 119.723 34.8992C119.847 34.6406 120.048 34.4203 120.323 34.2407C120.601 34.0589 120.966 33.9691 121.419 33.9691C121.811 33.9691 122.133 34.0309 122.382 34.1542C122.631 34.2782 122.817 34.4434 122.936 34.6513C123.056 34.8576 123.128 35.0902 123.154 35.3498H122.593C122.57 35.1104 122.469 34.8966 122.29 34.7102C122.112 34.5222 121.821 34.4291 121.419 34.4291C121.157 34.4291 120.934 34.4802 120.754 34.5823C120.573 34.6825 120.432 34.8179 120.329 34.9877C120.224 35.1562 120.15 35.3423 120.109 35.5431C120.068 35.7441 120.047 35.9549 120.047 36.1755C120.047 36.3915 120.076 36.5981 120.134 36.7966C120.194 36.9966 120.282 37.173 120.401 37.3285C120.521 37.4827 120.669 37.6047 120.848 37.6951C121.027 37.7846 121.232 37.8285 121.465 37.8285C121.699 37.8285 121.904 37.782 122.078 37.689C122.254 37.5956 122.39 37.472 122.485 37.3165C122.581 37.16 122.635 36.9937 122.647 36.8151L122.646 36.8154ZM125.121 35.831H127.314V36.2897H125.121V37.7039L127.608 37.7046V38.1639H124.56V34.0898H127.543V34.5495H125.121V35.831ZM129.769 34.5505H128.406V34.0908H131.689V34.5505H130.33V38.1643H129.769V34.5505ZM133.454 34.0908V35.7493H134.657C134.846 35.7493 135.042 35.7796 135.243 35.8394C135.445 35.899 135.623 36.0206 135.778 36.2025C135.931 36.385 136.007 36.6401 136.007 36.9713C136.007 37.4147 135.871 37.7238 135.597 37.9011C135.325 38.0761 135.01 38.1646 134.656 38.1646H132.893V34.0904L133.454 34.0908H133.454ZM133.454 36.2097V37.7052H134.589C134.697 37.7052 134.814 37.6867 134.94 37.6496C135.066 37.6122 135.181 37.5383 135.281 37.4248C135.382 37.3129 135.433 37.1554 135.433 36.954C135.433 36.4576 135.128 36.209 134.519 36.209L133.454 36.2093L133.454 36.2097Z" fill="#4D4D4D"/>
<path d="M187.582 33.8079H188.67C188.966 33.8079 189.194 33.7497 189.357 33.6338C189.519 33.5177 189.6 33.3479 189.6 33.1247C189.6 32.8514 189.492 32.6735 189.277 32.5915C189.448 32.4652 189.533 32.3094 189.533 32.1243C189.533 31.907 189.454 31.7511 189.295 31.6571C189.135 31.5631 188.892 31.5159 188.564 31.5159H187.582V33.8079H187.582ZM188.635 32.8602C188.789 32.8602 188.901 32.8804 188.972 32.9197C189.042 32.9594 189.078 33.0232 189.078 33.1114C189.078 33.2727 188.926 33.3537 188.622 33.3537H188.087V32.8599H188.635L188.635 32.8602ZM188.551 31.9698C188.71 31.9698 188.827 31.9847 188.901 32.014C188.974 32.0433 189.011 32.1022 189.011 32.1903C189.011 32.3462 188.901 32.4239 188.679 32.4239H188.086V31.9698H188.551ZM189.954 33.8079H190.459V32.3712L191.215 33.3056L191.928 32.3842V33.8079H192.432V31.5159H192.016L191.211 32.556L190.405 31.5159H189.954V33.8079H189.954ZM194.659 33.0762C194.508 33.2789 194.303 33.3804 194.043 33.3804C193.846 33.3804 193.682 33.3332 193.552 33.2392C193.423 33.1452 193.347 33.0099 193.326 32.8335H195.035C195.053 32.6956 195.061 32.5882 195.061 32.5118C195.061 32.1975 194.96 31.9441 194.756 31.7518C194.552 31.5592 194.294 31.4629 193.981 31.4629C193.61 31.4629 193.32 31.5748 193.112 31.798C192.904 32.0212 192.8 32.3078 192.8 32.6575C192.8 33.019 192.913 33.3075 193.138 33.5236C193.364 33.7396 193.663 33.8476 194.035 33.8476C194.424 33.8476 194.735 33.6918 194.968 33.3804L194.659 33.0762ZM193.959 31.9174C194.125 31.9174 194.258 31.9584 194.358 32.0407C194.458 32.123 194.519 32.2421 194.539 32.3976H193.331C193.363 32.2476 193.434 32.1301 193.543 32.0449C193.652 31.9597 193.791 31.9171 193.959 31.9171V31.9174ZM197.142 33.0544C196.997 33.2717 196.804 33.3807 196.562 33.3807C196.332 33.3807 196.147 33.3124 196.007 33.1758C195.867 33.0391 195.796 32.8667 195.796 32.6582C195.796 32.4434 195.863 32.2687 195.996 32.1334C196.128 31.9981 196.3 31.9307 196.509 31.9307C196.751 31.9307 196.947 32.0306 197.098 32.2304L197.474 31.9837C197.397 31.8279 197.271 31.7023 197.095 31.607C196.92 31.5114 196.717 31.4635 196.487 31.4635C196.127 31.4635 195.835 31.5768 195.611 31.8032C195.386 32.0293 195.274 32.3143 195.274 32.6585C195.274 33.0167 195.388 33.3046 195.615 33.5223C195.842 33.7399 196.142 33.8486 196.514 33.8486C196.72 33.8486 196.913 33.7991 197.093 33.7009C197.273 33.6023 197.409 33.4637 197.5 33.2844L197.142 33.0551L197.142 33.0544ZM197.576 31.9834H198.408V33.8082H198.912V31.9834H199.744V31.5162H197.576V31.9834ZM201.661 33.0762C201.51 33.2789 201.305 33.3804 201.045 33.3804C200.848 33.3804 200.684 33.3332 200.554 33.2392C200.424 33.1452 200.349 33.0099 200.328 32.8335H202.037C202.055 32.6956 202.063 32.5882 202.063 32.5118C202.063 32.1975 201.962 31.9441 201.758 31.7518C201.554 31.5592 201.296 31.4629 200.983 31.4629C200.611 31.4629 200.321 31.5748 200.113 31.798C199.905 32.0212 199.801 32.3078 199.801 32.6575C199.801 33.019 199.914 33.3075 200.14 33.5236C200.366 33.7396 200.664 33.8476 201.036 33.8476C201.426 33.8476 201.737 33.6918 201.97 33.3804L201.66 33.0762H201.661ZM200.961 31.9174C201.127 31.9174 201.26 31.9584 201.359 32.0407C201.46 32.123 201.521 32.2421 201.541 32.3976H200.333C200.365 32.2476 200.436 32.1301 200.545 32.0449C200.654 31.9597 200.793 31.9171 200.961 31.9171V31.9174ZM205.232 33.0544C205.088 33.2717 204.894 33.3807 204.653 33.3807C204.422 33.3807 204.237 33.3124 204.097 33.1758C203.957 33.0391 203.887 32.8667 203.887 32.6582C203.887 32.4434 203.953 32.2687 204.086 32.1334C204.219 31.9981 204.39 31.9307 204.599 31.9307C204.841 31.9307 205.038 32.0306 205.188 32.2304L205.564 31.9837C205.487 31.8279 205.361 31.7023 205.186 31.607C205.01 31.5114 204.808 31.4635 204.577 31.4635C204.217 31.4635 203.925 31.5768 203.701 31.8032C203.477 32.0293 203.365 32.3143 203.365 32.6585C203.365 33.0167 203.479 33.3046 203.706 33.5223C203.933 33.7399 204.233 33.8486 204.604 33.8486C204.81 33.8486 205.004 33.7991 205.184 33.7009C205.364 33.6023 205.499 33.4637 205.591 33.2844L205.233 33.0551L205.232 33.0544ZM206.896 33.8079H207.985C208.28 33.8079 208.508 33.7497 208.671 33.6338C208.833 33.5177 208.914 33.3479 208.914 33.1247C208.914 32.8514 208.807 32.6735 208.591 32.5915C208.763 32.4652 208.848 32.3094 208.848 32.1243C208.848 31.907 208.768 31.7511 208.609 31.6571C208.45 31.5631 208.206 31.5159 207.879 31.5159H206.896V33.8079H206.896ZM207.95 32.8602C208.103 32.8602 208.215 32.8804 208.286 32.9197C208.357 32.9594 208.392 33.0232 208.392 33.1114C208.392 33.2727 208.24 33.3537 207.936 33.3537H207.401V32.8599H207.95V32.8602ZM207.865 31.9698C208.025 31.9698 208.141 31.9847 208.215 32.014C208.289 32.0433 208.326 32.1022 208.326 32.1903C208.326 32.3462 208.215 32.4239 207.994 32.4239H207.401V31.9698H207.866H207.865ZM209.516 32.1724C209.729 32.0108 209.948 31.9301 210.176 31.9301C210.356 31.9301 210.484 31.9727 210.561 32.0579C210.638 32.1432 210.675 32.2726 210.671 32.446C210.548 32.4047 210.39 32.3842 210.198 32.3842C209.873 32.3842 209.613 32.4447 209.417 32.5648C209.22 32.6855 209.122 32.8677 209.122 33.1114C209.122 33.3316 209.198 33.5073 209.35 33.6381C209.502 33.7689 209.705 33.8342 209.959 33.8342C210.266 33.8342 210.503 33.7419 210.671 33.5567V33.8079H211.176V32.4064C211.176 32.1067 211.094 31.8744 210.93 31.7101C210.767 31.5455 210.534 31.4632 210.234 31.4632C210.045 31.4632 209.864 31.4931 209.691 31.5537C209.519 31.6138 209.378 31.6968 209.269 31.8029L209.517 32.1731L209.516 32.1724ZM210.069 33.3977C209.94 33.3977 209.836 33.3723 209.76 33.3205C209.683 33.2691 209.645 33.1979 209.645 33.1068C209.645 32.9041 209.847 32.8026 210.251 32.8026C210.407 32.8026 210.548 32.8231 210.671 32.8644V33.085C210.533 33.2935 210.332 33.398 210.07 33.398L210.069 33.3977ZM211.631 33.8076H212.136V32.3709L212.893 33.3053L213.605 32.3839V33.8076H214.11V31.5156H213.694L212.888 32.5557L212.083 31.5156H211.631V33.8076H211.631ZM215.022 33.8076L216.243 32.3179V33.8076H216.748V31.5156H216.31L215.088 33.0099V31.5156H214.583V33.8076H215.022Z" fill="#4D4D4D"/>
<path d="M202.42 12.8199C202.884 12.694 203.093 12.8244 203.046 13.1992C200.988 15.6939 197.938 19.0409 193.898 23.2364L191.488 25.9647C189.741 27.8926 191.281 27.3548 196.104 24.3595C196.436 24.4213 196.56 24.5612 196.475 24.783C196.385 25.0007 196.158 25.2434 195.787 25.4988C195.421 25.7577 194.443 26.2949 192.867 27.1046C191.286 27.9186 190.343 28.3594 190.036 28.4313C189.728 28.5029 189.558 28.4066 189.53 28.1428C189.502 27.8825 189.792 27.252 190.397 26.2467C192.092 23.7901 195.061 20.489 199.299 16.3471L201.755 13.792L201.44 13.9335C196.925 16.9432 191.49 21.9129 185.143 28.851C184.597 28.8429 184.558 28.1418 185.032 26.7438C185.506 25.3459 185.929 24.5927 186.296 24.4928C186.668 24.3891 186.899 24.4811 186.994 24.7619C187.085 25.0427 187.004 25.1946 186.75 25.2096C186.493 25.2252 186.315 25.6816 186.209 26.5831C193.222 18.9755 198.627 14.3877 202.42 12.8195V12.8199ZM202.188 22.1023C202.849 21.7685 203.51 21.6348 204.172 21.7057C204.832 21.7724 205.19 22.1924 205.245 22.9618C205.311 24.0533 203.227 24.9555 198.988 25.6751C198.107 25.9816 197.688 26.3173 197.731 26.6827C197.774 27.048 197.951 27.2582 198.262 27.3174C198.574 27.372 198.904 27.4056 199.253 27.4134C199.603 27.4212 200.903 27.1307 203.154 26.5421C205.401 25.9578 206.517 25.7356 206.496 25.8758C206.476 26.0161 205.421 26.4224 203.323 27.0962C201.228 27.7693 199.499 28.0936 198.135 28.0731C197.208 27.8711 196.813 27.3795 196.95 26.5984L197.012 26.0554L196.21 26.1032C196.133 25.9159 196.261 25.7324 196.591 25.5492C196.921 25.3657 198.785 24.2157 202.188 22.1026L202.188 22.1023ZM200.879 23.7384C198.456 24.9467 198.594 25.2083 201.287 24.5273C203.452 23.8581 204.519 23.3242 204.496 22.9371C204.472 22.546 203.985 22.4322 203.034 22.5913L200.879 23.7384ZM206.222 21.599L217.767 21.1367C218.091 21.33 218.076 21.5561 217.721 21.8101C217.367 22.0603 216.018 22.2269 213.675 22.3017L211.671 22.3726C211.162 22.4358 209.825 22.3808 207.655 22.2084C208.312 22.831 208.684 23.8841 208.773 25.3628C210.44 23.8812 211.622 23.1193 212.325 23.0773C212.617 23.0842 212.704 23.2305 212.594 23.5149L207.748 27.497C207.424 27.508 207.26 27.3665 207.25 27.0688L207.89 26.1107C207.76 23.9678 207.059 22.5503 205.781 21.8544C205.745 21.6563 205.891 21.5697 206.222 21.599H206.222Z" fill="#4D4D4D"/>
<path fill-rule="evenodd" clip-rule="evenodd" d="M186.813 8.21008C190.381 8.21008 193.624 9.596 196.029 11.8561L193.748 16.1222C192.129 14.0863 189.624 12.78 186.813 12.78C181.929 12.78 177.97 16.7231 177.97 21.5872C177.97 26.2225 181.566 30.0214 186.131 30.3682L183.849 34.6369C182.226 34.2726 180.715 33.616 179.373 32.725V30.1948H176.533C175.364 28.8112 174.471 27.1884 173.939 25.4108C174.045 25.3158 174.149 25.2205 174.252 25.1242C175.537 23.9315 176.632 22.5596 177.414 20.9889C178.187 19.4344 178.536 17.7612 178.536 16.0295C178.536 14.5193 178.205 13.1467 177.507 11.942C179.922 9.63114 183.201 8.21041 186.813 8.21041V8.21008Z" fill="#E22427"/>
<path d="M161.777 16.863C162.31 15.6245 163.122 14.6013 164.213 13.7929C165.304 12.9841 166.675 12.58 168.324 12.58C169.872 12.58 171.083 12.9529 171.958 13.6982C172.834 14.4435 173.272 15.4605 173.272 16.7495C173.272 17.3055 173.189 17.8488 173.024 18.3794C172.859 18.91 172.555 19.4722 172.111 20.0663C171.666 20.66 171.286 21.1529 170.969 21.5446C170.652 21.9363 170.106 22.4607 169.332 23.1176C168.558 23.7744 168.019 24.2361 167.715 24.5012C167.41 24.7664 166.788 25.2531 165.85 25.9604C164.911 26.668 164.353 27.0974 164.175 27.249L158.161 31.6081V34.9819H178.828V30.7363H165.354L168.399 28.9928C170.734 27.3756 172.56 25.9542 173.88 24.7283C175.2 23.5028 176.214 22.1761 176.925 20.7485C177.635 19.3206 177.99 17.748 177.99 16.0292C177.99 13.679 177.147 11.7839 175.459 10.3437C173.772 8.90311 171.419 8.18347 168.399 8.18347C165.786 8.18347 163.528 8.7964 161.624 10.0219C159.721 11.2475 158.44 12.9974 157.78 15.2715L161.777 16.8637L161.777 16.863Z" fill="#E22427"/>
<defs>
<linearGradient id="paint0_linear_23_3302" x1="118.682" y1="23.6352" x2="118.682" y2="8.18902" gradientUnits="userSpaceOnUse">
<stop stop-color="#DEDEDE"/>
<stop offset="0.368627" stop-color="white"/>
<stop offset="0.501961" stop-color="white"/>
<stop offset="0.65098" stop-color="white"/>
<stop offset="1" stop-color="#F0F0F0"/>
</linearGradient>
</defs>
</svg>
