<svg width="218" height="44" viewBox="0 0 218 44" fill="none" xmlns="http://www.w3.org/2000/svg">
<path fill-rule="evenodd" clip-rule="evenodd" d="M147.498 0H147.498C147.644 0 147.762 0.118421 147.762 0.263195V42.8448C147.762 42.9886 147.644 43.1074 147.498 43.1074H147.498C147.352 43.1074 147.233 42.9889 147.233 42.8448V0.263195C147.233 0.118421 147.352 0 147.498 0Z" fill="white"/>
<path fill-rule="evenodd" clip-rule="evenodd" d="M137.695 4.02783H0V28.6849H101.081H137.695V4.02783Z" fill="#E22427"/>
<path fill-rule="evenodd" clip-rule="evenodd" d="M98.7817 16.3559C98.7817 22.3255 97.3852 27.1651 95.6623 27.1658H4.64418C2.92161 27.1658 1.52539 22.3261 1.52539 16.3559C1.52539 10.3861 2.92161 5.54639 4.64418 5.54639H95.6623C97.3852 5.54704 98.7817 10.3864 98.7817 16.3559Z" fill="#FEFEFE"/>
<path fill-rule="evenodd" clip-rule="evenodd" d="M10.7632 10.7772H13.4282L17.629 21.9059H14.8437L14.1201 19.8214H10.0693L9.36175 21.9059H6.5752L10.7625 10.7772H10.7632ZM10.642 17.9312H13.5488L12.1026 13.6876L10.642 17.9312ZM18.6685 10.7772H24.2863C25.2804 10.7772 26.0157 10.9382 26.4917 11.257C26.9693 11.5772 27.2986 11.9272 27.4783 12.3079C27.5985 12.5675 27.6717 12.8144 27.6975 13.0496C27.7223 13.2842 27.7347 13.4726 27.7347 13.6124C27.7347 14.1226 27.6266 14.5325 27.4107 14.8422C27.195 15.1522 26.9569 15.3914 26.6952 15.5615C26.5446 15.6624 26.3996 15.7398 26.2591 15.7945C26.1186 15.8494 25.9975 15.8917 25.8975 15.9217V15.9526C25.9377 15.9623 25.9772 15.9692 26.0177 15.9744C26.0582 15.9786 26.0984 15.9871 26.1379 15.9971C26.6701 16.1374 27.1601 16.4266 27.6063 16.8671C28.0536 17.3076 28.277 17.9465 28.277 18.7869C28.277 19.757 28.0232 20.4565 27.5165 20.8859C27.0082 21.317 26.4489 21.6013 25.8364 21.7412C25.4947 21.8216 25.1608 21.8691 24.8351 21.8841C24.5094 21.8987 24.2298 21.9068 23.9995 21.9068H18.6681V10.7781L18.6685 10.7772ZM21.3047 17.2106V19.866H24.0449C24.1259 19.866 24.2177 19.8582 24.3236 19.8432C24.4287 19.8279 24.5431 19.7951 24.6626 19.746C24.8629 19.6656 25.0517 19.528 25.2265 19.3328C25.4029 19.1389 25.4908 18.8555 25.4908 18.4863C25.4908 17.9371 25.3075 17.587 24.9413 17.4371C24.5751 17.2868 24.1749 17.2106 23.7434 17.2106C23.7336 17.2106 23.7254 17.2106 23.7212 17.2106C23.7166 17.2106 23.7088 17.2106 23.6983 17.2106H21.3041H21.3047ZM21.3047 12.817V15.1721H23.7437C23.7947 15.1721 23.845 15.1701 23.8943 15.1643C23.9449 15.1601 23.9956 15.1519 24.0449 15.1415C24.2968 15.1015 24.5248 14.9915 24.7303 14.8116C24.9357 14.6314 25.0393 14.3662 25.0393 14.0172C25.0393 13.5962 24.9135 13.2985 24.6626 13.1241C24.4111 12.9497 24.136 12.8521 23.8345 12.832C23.8041 12.8216 23.7718 12.8167 23.7359 12.8167C23.7009 12.8167 23.664 12.8167 23.6235 12.8167H21.3044L21.3047 12.817ZM32.629 12.9377H29.2561V10.7775H38.6379V12.9377H35.265V21.9062H32.629V12.9377ZM45.174 22.2204C43.1258 22.2104 41.6727 21.6059 40.8145 20.4067C39.956 19.2059 39.5268 17.8522 39.5268 16.3413C39.5268 16.2418 39.5291 16.1387 39.5346 16.0336C39.5389 15.9282 39.547 15.8263 39.5572 15.7268C39.647 14.4063 40.1145 13.1993 40.957 12.1045C41.8011 11.0095 43.2065 10.4619 45.174 10.4619C47.1717 10.4619 48.5872 11.0173 49.4212 12.1273C50.2539 13.2373 50.7155 14.4567 50.8063 15.786C50.8063 15.8771 50.8082 15.9685 50.8141 16.0635C50.8184 16.1585 50.821 16.2516 50.821 16.341C50.821 16.4302 50.8187 16.5232 50.8141 16.6185C50.8082 16.7135 50.8063 16.8066 50.8063 16.8957C50.7155 18.226 50.2535 19.4437 49.4212 20.5482C48.5872 21.6527 47.172 22.2055 45.174 22.2055V22.2198V22.2204ZM45.174 20.0612C46.0074 20.0612 46.6176 19.8384 47.0041 19.3936C47.3909 18.9486 47.6535 18.4619 47.794 17.9312C47.8747 17.6414 47.9247 17.3541 47.9446 17.0688C47.9648 16.7844 47.9746 16.5421 47.9746 16.3417C47.9746 16.1328 47.9648 15.8917 47.9446 15.6224C47.9247 15.3523 47.8796 15.0716 47.81 14.7817C47.6797 14.2423 47.4177 13.7478 47.0263 13.2969C46.6346 12.8473 46.0175 12.6221 45.174 12.6221C44.1604 12.6221 43.4593 12.9449 43.0725 13.59C42.6861 14.2345 42.4623 14.9418 42.4032 15.7112C42.3927 15.8208 42.3852 15.9285 42.381 16.0339C42.3751 16.139 42.3731 16.2421 42.3731 16.3417C42.3731 16.4712 42.3751 16.5993 42.381 16.7243C42.3852 16.8495 42.3986 16.9757 42.4179 17.1069C42.4884 17.8467 42.7184 18.5243 43.1111 19.1389C43.5018 19.7528 44.1894 20.0612 45.174 20.0612ZM60.0983 17.9761H62.7186C62.6983 18.2068 62.6578 18.4541 62.5983 18.7192C62.5376 18.9844 62.4523 19.2505 62.3419 19.5212C62.0711 20.2008 61.5791 20.8264 60.8656 21.3957C60.1535 21.9651 59.079 22.2504 57.6436 22.2504C56.0367 22.2504 54.8548 21.9163 54.0962 21.2457C53.339 20.5756 52.8245 19.8361 52.5537 19.0257C52.393 18.566 52.2894 18.116 52.2446 17.6765C52.1999 17.2363 52.1773 16.8619 52.1773 16.5518C52.1773 14.893 52.4661 13.6447 53.0427 12.8102C53.6199 11.9754 54.2547 11.3868 54.9482 11.0478C55.4996 10.7775 56.022 10.6151 56.5143 10.5598C57.0066 10.5052 57.3526 10.4785 57.5538 10.4785C59.0088 10.4785 60.0931 10.7502 60.8065 11.2951C61.519 11.8397 62.0107 12.4419 62.2818 13.102C62.3827 13.3515 62.4579 13.602 62.5075 13.8519C62.5575 14.1024 62.5882 14.3363 62.5983 14.5566H60.0075C59.9973 14.4469 59.9748 14.324 59.9402 14.1896C59.9052 14.0542 59.8526 13.9173 59.7817 13.7767C59.6514 13.497 59.4234 13.2373 59.0977 12.9972C58.7707 12.7575 58.2967 12.6368 57.674 12.6368C56.9213 12.6368 56.364 12.8469 56.0024 13.2676C55.6408 13.6876 55.3856 14.1473 55.2341 14.6473C55.1338 15.0068 55.0743 15.3543 55.0541 15.6894C55.0338 16.0248 55.024 16.2766 55.024 16.4468C55.024 17.427 55.1691 18.1665 55.4601 18.6665C55.7522 19.1665 56.0733 19.5212 56.4251 19.731C56.7159 19.9005 56.989 20.004 57.2454 20.0388C57.5015 20.0745 57.6743 20.0911 57.7642 20.0911C58.3463 20.0911 58.7935 19.9737 59.1049 19.7385C59.4159 19.5039 59.6475 19.2407 59.7984 18.9505C59.8984 18.7615 59.9712 18.5761 60.0163 18.3968C60.061 18.2166 60.0895 18.0767 60.0993 17.9761H60.0983ZM66.9654 15.201H72.432V17.2412H66.9654V19.7463H73.3202V21.9062H64.3297V10.7775H73.1699V12.9377H66.9657V15.201H66.9654ZM77.2661 12.9377H73.8919V10.7775H83.274V12.9377H79.9008V21.9062H77.2661V12.9377ZM87.3111 10.7775V14.8123H90.0964C91.5831 14.8123 92.6062 15.162 93.1694 15.8618C93.7313 16.5622 94.0368 17.332 94.0874 18.1713C94.0874 18.2214 94.0874 18.2696 94.0874 18.3129C94.0874 18.3591 94.0874 18.4062 94.0874 18.4567C94.0874 19.6269 93.7512 20.4939 93.0786 21.059C92.4063 21.6228 91.4067 21.9062 90.082 21.9062H84.6758V10.7775H87.3115H87.3111ZM87.3111 16.9718V19.7466H89.5547C90.0268 19.7466 90.4335 19.6539 90.7739 19.4694C91.1153 19.284 91.2861 18.9167 91.2861 18.3669C91.2861 17.8164 91.111 17.4465 90.7592 17.2575C90.4074 17.0672 89.9817 16.9718 89.4799 16.9718H87.3111Z" fill="#4D4D4D"/>
<path fill-rule="evenodd" clip-rule="evenodd" d="M4.64418 27.1658V5.54639C2.92161 5.54639 1.52539 10.3861 1.52539 16.3559C1.52539 22.3261 2.92161 27.1658 4.64418 27.1658ZM98.7817 16.3559C98.7817 22.3255 97.3852 27.1651 95.6623 27.1658V5.54639C97.3852 5.54704 98.7817 10.3864 98.7817 16.3559Z" fill="#EDEDED"/>
<path fill-rule="evenodd" clip-rule="evenodd" d="M123.748 22.6623H126.478V21.0321H126.914C128.776 21.0321 130.148 20.577 131.032 19.6647C131.916 18.7538 132.358 17.6512 132.358 16.3561C132.358 15.0612 131.916 13.9593 131.032 13.0471C130.148 12.1368 128.776 11.6814 126.914 11.6814H126.478V10.0498H123.748V11.6814H123.312C121.45 11.6814 120.078 12.1368 119.195 13.0471C118.31 13.9593 117.869 15.0609 117.869 16.3561C117.869 17.6509 118.31 18.7538 119.195 19.6647C120.078 20.577 121.451 21.0321 123.312 21.0321H123.748V22.6623ZM107.277 10.7018V22.2283H110.006V18.2671H112.611C112.85 18.2671 113.133 18.2534 113.461 18.228C113.788 18.2023 114.124 18.1373 114.467 18.0345C115.081 17.8575 115.645 17.5029 116.16 16.9703C116.675 16.4368 116.932 15.5896 116.932 14.4301C116.932 13.4469 116.633 12.5796 116.035 11.8291C115.436 11.0782 114.317 10.7021 112.674 10.7021H107.277V10.7018ZM110.006 12.9547V16.0304H112.144C112.716 16.0304 113.184 15.924 113.547 15.7116C113.911 15.4998 114.093 15.0772 114.093 14.4457C114.093 13.8549 113.923 13.4593 113.579 13.2579C113.236 13.0565 112.757 12.9547 112.144 12.9547H110.007H110.006ZM123.997 18.8569V13.8549H123.779C122.698 13.8549 121.915 14.0755 121.432 14.5153C120.948 14.9558 120.706 15.5691 120.706 16.3557C120.706 17.2673 120.989 17.9125 121.557 18.2908C122.123 18.6676 122.864 18.8569 123.779 18.8569H123.997H123.997ZM126.228 18.8569H126.447C127.372 18.8569 128.116 18.6679 128.678 18.2908C129.239 17.9125 129.519 17.2677 129.519 16.3557C129.519 15.5691 129.277 14.9558 128.794 14.5153C128.311 14.0752 127.528 13.8549 126.447 13.8549H126.228V18.8569H126.228Z" fill="url(#paint0_linear_23_2967)"/>
<path fill-rule="evenodd" clip-rule="evenodd" d="M3.7953 38.3153V37.705H3.56205C3.3827 37.705 3.18898 37.6848 2.98318 37.6454C2.77704 37.6064 2.57254 37.5296 2.37033 37.418C2.16779 37.3071 2.00053 37.1415 1.86692 36.9226C1.73331 36.7043 1.66602 36.4261 1.66602 36.0887C1.66602 35.6525 1.77382 35.3138 1.99041 35.0743C2.20536 34.8349 2.45461 34.6751 2.7385 34.5951C3.02271 34.5161 3.29646 34.4757 3.56238 34.4757H3.7953V33.8599H4.35718V34.4757H4.5901C4.86124 34.4757 5.13859 34.5157 5.42117 34.5941C5.7044 34.6738 5.953 34.8336 6.16501 35.0724C6.37931 35.3125 6.48548 35.6518 6.48548 36.0894C6.48548 36.4424 6.41296 36.7303 6.26628 36.9525C6.11928 37.1747 5.93993 37.3393 5.72824 37.4454C5.51721 37.5521 5.31304 37.622 5.11736 37.6559C4.92201 37.6897 4.74723 37.7066 4.58945 37.7066H4.35685V38.3173L3.79497 38.3153H3.7953ZM3.7953 37.2752V34.9068H3.64045C2.72249 34.9068 2.26416 35.3008 2.26416 36.0891C2.26416 36.281 2.29487 36.4635 2.35563 36.6353C2.41541 36.8064 2.54837 36.9574 2.75418 37.0839C2.95868 37.2118 3.25465 37.2749 3.64012 37.2749L3.7953 37.2752ZM4.35718 37.2752H4.51889C5.43129 37.2752 5.88799 36.8793 5.88799 36.0887C5.88799 35.6154 5.7498 35.2998 5.47115 35.1433C5.19282 34.9849 4.87627 34.9071 4.51889 34.9071L4.35718 34.9065V37.2749V37.2752ZM8.42366 35.8314H10.617V36.2901H8.42366V37.7043L10.9106 37.705V38.1644H7.86243V34.0902H10.8463V34.5499H8.42366V35.8314ZM15.3619 37.7053H15.965L15.9117 39.0844L15.4208 39.0847V38.165H12.1684V39.0844L11.6777 39.0847L11.6303 37.7056H12.0063C12.5372 37.0761 12.8018 36.1515 12.8018 34.9296V34.0915H15.3616V37.7056L15.3619 37.7053ZM14.7994 34.5509H13.364V35.0581C13.364 35.4133 13.3454 35.7364 13.3088 36.0295C13.2712 36.3213 13.201 36.6076 13.0991 36.8887C12.9978 37.1698 12.857 37.4415 12.6767 37.7047L14.7991 37.7053L14.7994 34.5512V34.5509ZM17.732 35.8314H19.9253V36.2901H17.732V37.7043L20.218 37.705V38.1644H17.1695V34.0902H20.154V34.5499H17.7323V35.8314H17.732ZM21.4466 34.0908H23.1509C24.0957 34.0908 24.5677 34.4803 24.5677 35.2604C24.5677 36.1144 24.0774 36.5406 23.0977 36.5406H22.0079V38.1647H21.4466L21.4463 34.0908H21.4466ZM22.0079 34.5505V36.0812H23.0376C23.3789 36.0812 23.6239 36.0113 23.7719 35.8727C23.9202 35.7325 23.9941 35.5327 23.9941 35.2721C23.9941 35.0106 23.9124 34.8258 23.75 34.7155C23.586 34.6049 23.3485 34.5496 23.0382 34.5496L22.0075 34.5502L22.0079 34.5505ZM26.3494 37.1112L25.9541 38.166H25.3511L26.9351 34.0915L27.5333 34.0918L29.118 38.166H28.5127L28.1193 37.1112H26.3491H26.3494ZM26.5039 36.6519H27.9661L27.2344 34.6439L26.5039 36.6519ZM29.7896 38.1647V37.6874C29.8377 37.6991 29.8876 37.7047 29.9409 37.7047C30.4975 37.7047 30.7769 37.0836 30.7769 35.8431V34.0905H33.4014V38.1647H32.8392V34.5505H31.3387V35.9612C31.3387 36.7752 31.2189 37.3507 30.9797 37.6848C30.7396 38.0202 30.4283 38.1878 30.0451 38.1878C29.9873 38.1884 29.902 38.1806 29.7896 38.1647ZM35.5966 34.0905V35.7491H36.7985C36.9883 35.7491 37.1846 35.7793 37.3859 35.8392C37.5874 35.8987 37.7658 36.0204 37.92 36.2023C38.0735 36.3848 38.1503 36.6398 38.1503 36.971C38.1503 37.4145 38.0128 37.7235 37.7413 37.9008C37.4675 38.0759 37.1536 38.1644 36.7985 38.1644H35.0344V34.0902L35.5966 34.0905ZM35.5966 36.2094V37.705H36.7319C36.8406 37.705 36.9576 37.6864 37.0837 37.6493C37.2104 37.6119 37.3241 37.5381 37.4247 37.4245C37.5257 37.3126 37.5766 37.1552 37.5766 36.9538C37.5766 36.4573 37.2719 36.2088 36.6613 36.2088L35.5966 36.2091V36.2094ZM40.0297 36.2504V38.1647H39.4661V34.0905H40.0297V35.7894H42.1341V34.0905H42.6953V38.1647H42.1341V36.2504H40.0297ZM44.7969 37.1109L44.4016 38.1653H43.7979L45.3832 34.0905H45.9811L47.5664 38.1653H46.9601L46.5671 37.1103L44.7969 37.1109ZM44.9517 36.6515H46.4119L45.6818 34.6436L44.9517 36.6515ZM51.334 36.5455H50.385L49.3602 38.164H48.6683L49.8035 36.4879C49.6738 36.4801 49.5425 36.4541 49.4099 36.4105C49.2782 36.3662 49.156 36.2989 49.0423 36.2049C48.929 36.1131 48.8392 35.9934 48.7699 35.8437C48.7013 35.6944 48.6686 35.5152 48.6686 35.305C48.6686 34.9933 48.7673 34.7119 48.963 34.4614C49.1603 34.2122 49.5428 34.0886 50.1089 34.0886H51.8969V38.1634H51.3343V36.5448L51.3337 36.5455H51.334ZM51.334 34.5502H50.157C49.8104 34.5502 49.5709 34.628 49.4396 34.7864C49.3083 34.9439 49.2423 35.1202 49.2423 35.3125C49.2423 35.5363 49.3168 35.7211 49.4657 35.8685C49.614 36.0132 49.8705 36.0868 50.2347 36.0868H51.334V34.5502ZM55.9349 37.1109L55.5393 38.1657H54.9366L56.5216 34.0912L57.1191 34.0915L58.7045 38.1657H58.0998L57.7058 37.1109H55.9349ZM56.0897 36.6515H57.5503L56.8215 34.6436L56.0897 36.6515ZM59.806 34.0905H61.6416C61.8696 34.0905 62.064 34.1182 62.2254 34.1709C62.3858 34.2252 62.5158 34.2978 62.6138 34.3921C62.7108 34.4871 62.7817 34.5961 62.8249 34.7197C62.8686 34.8433 62.8905 34.979 62.8905 35.1257C62.8905 35.2591 62.8614 35.388 62.8049 35.5139C62.7484 35.6391 62.668 35.7448 62.5612 35.8324C62.4541 35.9189 62.3312 35.9749 62.1911 35.9999V36.0185C62.4074 36.052 62.6089 36.1437 62.7928 36.2969C62.9784 36.4479 63.0705 36.6929 63.0705 37.0296C63.0705 37.2616 63.0209 37.4607 62.9222 37.6298C62.8235 37.7987 62.6628 37.9301 62.442 38.0235C62.2189 38.1169 61.9314 38.1657 61.576 38.1657H59.8064V34.0905L59.8054 34.0908L59.806 34.0905ZM60.3673 34.5502V35.8193H61.4976C61.7965 35.8193 62.0075 35.7579 62.1316 35.6372C62.2545 35.5148 62.3172 35.3652 62.3172 35.1846C62.3172 35.0301 62.2639 34.884 62.1578 34.7506C62.0513 34.6166 61.8363 34.5502 61.5165 34.5502H60.3669H60.3673ZM60.3673 36.2787V37.7043H61.5345C61.7099 37.7043 61.8703 37.6858 62.0118 37.6487C62.1529 37.6113 62.2698 37.5394 62.3606 37.433C62.4508 37.3263 62.4952 37.1763 62.4952 36.9827C62.4952 36.7241 62.4103 36.5409 62.2381 36.4372C62.0673 36.3311 61.8318 36.2787 61.5341 36.2787H60.3673ZM65.4768 34.5502H64.1123V34.0905H67.3954V34.5502H66.0384V38.164H65.4771L65.4765 34.5502H65.4768ZM70.3564 38.2864C70.0411 38.2864 69.7582 38.2369 69.5087 38.1364C69.2597 38.0365 69.0503 37.8927 68.8795 37.7047C68.7106 37.516 68.5812 37.2892 68.4917 37.0218C68.4045 36.7527 68.3607 36.4541 68.3607 36.1274C68.3607 35.7559 68.4133 35.4335 68.5201 35.157C68.626 34.8804 68.7733 34.6566 68.9579 34.4806C69.1418 34.3052 69.3528 34.1771 69.5943 34.0931C69.8324 34.0108 70.0879 33.9698 70.358 33.9698C70.6341 33.9698 70.8918 34.0095 71.1296 34.0918C71.3697 34.1745 71.5801 34.3036 71.7647 34.4767C71.9506 34.652 72.091 34.8765 72.1992 35.154C72.3037 35.4316 72.3576 35.7546 72.3576 36.1281C72.3576 36.4606 72.3135 36.7592 72.2279 37.0237C72.14 37.2886 72.0126 37.5156 71.8405 37.705C71.6703 37.8933 71.4599 38.0371 71.2093 38.1374C70.9572 38.2376 70.6723 38.287 70.3567 38.287L70.3564 38.2864ZM70.3551 37.8267C70.5922 37.8267 70.7994 37.7863 70.9764 37.705C71.1541 37.6223 71.3005 37.5049 71.4155 37.3546C71.5318 37.2046 71.617 37.0241 71.6719 36.8175C71.7274 36.6086 71.7549 36.3802 71.7549 36.1284C71.7549 35.7601 71.7026 35.4586 71.5968 35.2246C71.4916 34.9901 71.3619 34.816 71.2061 34.7025C71.0512 34.5883 70.9019 34.5141 70.7559 34.4803C70.6102 34.4464 70.4766 34.4289 70.3544 34.4289C69.9846 34.4289 69.656 34.5538 69.3767 34.803C69.098 35.0522 68.9569 35.4953 68.9569 36.1284C68.9569 36.376 68.9912 36.6249 69.0592 36.877C69.1251 37.1298 69.2624 37.351 69.4711 37.542C69.6782 37.7323 69.9745 37.8273 70.3554 37.8273L70.3551 37.8267ZM75.6737 38.1647L74.3115 34.7435H74.2991L74.3111 34.8996V38.1644H73.7493V34.0902H74.5937L75.9024 37.4428L77.2104 34.0902H78.0536V38.1644H77.491V34.8996L77.5021 34.7435H77.4842L76.1271 38.1657H75.6717V38.1647H75.6737ZM81.4454 38.2864C81.1286 38.2864 80.8457 38.2369 80.5974 38.1364C80.3475 38.0365 80.1377 37.8927 79.9679 37.7047C79.7983 37.516 79.6683 37.2892 79.5791 37.0218C79.4913 36.7527 79.4475 36.4541 79.4475 36.1274C79.4475 35.7559 79.5004 35.4335 79.6069 35.157C79.7131 34.8804 79.8607 34.6566 80.0446 34.4806C80.2289 34.3052 80.4412 34.1771 80.6797 34.0931C80.9188 34.0108 81.1733 33.9698 81.4454 33.9698C81.7195 33.9698 81.9782 34.0095 82.2177 34.0918C82.4568 34.1745 82.6685 34.3036 82.8515 34.4767C83.0364 34.652 83.1791 34.8765 83.2856 35.154C83.3895 35.4316 83.4421 35.7546 83.4421 36.1281C83.4421 36.4606 83.3983 36.7592 83.314 37.0237C83.2278 37.2886 83.0984 37.5156 82.9266 37.705C82.757 37.8933 82.5457 38.0371 82.2951 38.1374C82.0449 38.2376 81.7604 38.287 81.4458 38.287L81.4454 38.2864ZM81.4448 37.8267C81.6813 37.8267 81.8884 37.7863 82.0648 37.705C82.2425 37.6223 82.3869 37.5049 82.5042 37.3546C82.6185 37.2046 82.7051 37.0241 82.7606 36.8175C82.8162 36.6086 82.8439 36.3802 82.8439 36.1284C82.8439 35.7601 82.7904 35.4586 82.6852 35.2246C82.58 34.9901 82.451 34.816 82.2948 34.7025C82.14 34.5883 81.9894 34.5141 81.8446 34.4803C81.6993 34.4464 81.5647 34.4289 81.4441 34.4289C81.0721 34.4289 80.7463 34.5538 80.4657 34.803C80.1871 35.0522 80.0456 35.4953 80.0456 36.1284C80.0456 36.376 80.0793 36.6249 80.1459 36.877C80.2129 37.1298 80.3507 37.351 80.5592 37.542C80.7663 37.7323 81.0632 37.8273 81.4451 37.8273L81.4448 37.8267ZM85.3986 34.5505V35.7731H86.686C86.9143 35.7731 87.1303 35.8034 87.3371 35.8623C87.5419 35.9208 87.718 36.0406 87.865 36.2205C88.011 36.3991 88.0832 36.6532 88.0832 36.9834C88.0832 37.1757 88.0469 37.3585 87.9728 37.5345C87.8976 37.7099 87.7578 37.8592 87.5497 37.9809C87.3442 38.1032 87.0587 38.165 86.6902 38.165L84.8357 38.1647V34.0905H87.8078V34.5499L85.3986 34.5505ZM85.3986 36.2322V37.7047H86.5707C87.1976 37.7047 87.5092 37.4655 87.5092 36.9899C87.5092 36.485 87.1966 36.2332 86.5707 36.2332H85.3986V36.2322ZM90.0119 37.367L92.2428 34.0902H92.8033V38.1644H92.2421V34.8642L90.0116 38.1644H89.4497V34.0902H90.0119V37.367ZM94.0068 38.1647V37.6874C94.0545 37.6991 94.1058 37.7047 94.1578 37.7047C94.7147 37.7047 94.994 37.0836 94.994 35.8431V34.0905H97.6186V38.1647H97.0567V34.5505H95.5559V35.9612C95.5559 36.7752 95.4347 37.3507 95.1963 37.6848C94.9568 38.0202 94.6468 38.1878 94.2636 38.1878C94.2051 38.1884 94.1205 38.1806 94.0071 38.1647H94.0068ZM99.8142 34.0905V35.7491H101.016C101.205 35.7491 101.402 35.7793 101.602 35.8392C101.806 35.8987 101.983 36.0204 102.137 36.2023C102.29 36.3848 102.367 36.6398 102.367 36.971C102.367 37.4145 102.231 37.7235 101.958 37.9008C101.685 38.0759 101.371 38.1644 101.017 38.1644H99.2526V34.0902L99.8145 34.0905H99.8142ZM99.8142 36.2094V37.705H100.949C101.057 37.705 101.174 37.6864 101.3 37.6493C101.426 37.6119 101.54 37.5381 101.641 37.4245C101.742 37.3126 101.793 37.1552 101.793 36.9538C101.793 36.4573 101.488 36.2088 100.878 36.2088L99.8145 36.2091L99.8142 36.2094ZM104.246 36.2504V38.1647H103.684V34.0905H104.246V35.7894H106.351V34.0905H106.913V38.1647H106.351V36.2504H104.246ZM109.013 37.1109L108.618 38.1657H108.015L109.6 34.0912L110.198 34.0915L111.781 38.1657H111.177L110.783 37.1109H109.013ZM109.168 36.6515H110.629L109.899 34.6436L109.169 36.6515H109.168ZM115.551 36.5455H114.601L113.578 38.164H112.884L114.022 36.4879C113.891 36.4801 113.761 36.4541 113.628 36.4105C113.497 36.3662 113.374 36.2989 113.26 36.2049C113.146 36.1131 113.056 35.9934 112.988 35.8437C112.919 35.6944 112.885 35.5152 112.885 35.305C112.885 34.9933 112.984 34.7119 113.181 34.4614C113.377 34.2122 113.76 34.0886 114.327 34.0886H116.114V38.1634H115.552L115.551 36.5455ZM115.551 34.5502H114.374C114.026 34.5502 113.786 34.628 113.655 34.7864C113.524 34.9439 113.458 35.1202 113.458 35.3125C113.458 35.5363 113.533 35.7211 113.682 35.8685C113.832 36.0132 114.089 36.0868 114.451 36.0868H115.552L115.551 34.5502ZM122.646 36.8152H123.208C123.183 37.0341 123.115 37.2521 123.008 37.4707C122.903 37.689 122.721 37.879 122.464 38.0427C122.207 38.206 121.865 38.2864 121.438 38.2864C121.005 38.2864 120.639 38.1972 120.339 38.017C120.037 37.8384 119.814 37.5908 119.668 37.2736C119.52 36.9583 119.447 36.5995 119.447 36.1974C119.447 36.0172 119.46 35.8197 119.491 35.6059C119.519 35.3922 119.598 35.1557 119.723 34.899C119.847 34.6403 120.048 34.4201 120.323 34.2405C120.601 34.0586 120.966 33.9688 121.419 33.9688C121.811 33.9688 122.133 34.0307 122.382 34.154C122.631 34.2779 122.817 34.4432 122.936 34.6511C123.056 34.8573 123.128 35.09 123.154 35.3496H122.593C122.57 35.1101 122.469 34.8964 122.29 34.71C122.112 34.5219 121.821 34.4289 121.419 34.4289C121.157 34.4289 120.934 34.4799 120.754 34.5821C120.573 34.6823 120.432 34.8176 120.329 34.9875C120.224 35.156 120.15 35.3421 120.109 35.5428C120.068 35.7439 120.047 35.9547 120.047 36.1753C120.047 36.3913 120.076 36.5979 120.134 36.7963C120.194 36.9964 120.282 37.1727 120.401 37.3282C120.521 37.4825 120.669 37.6045 120.848 37.6949C121.027 37.7844 121.232 37.8283 121.465 37.8283C121.699 37.8283 121.904 37.7818 122.078 37.6887C122.254 37.5953 122.39 37.4717 122.485 37.3162C122.581 37.1597 122.635 36.9935 122.647 36.8149L122.646 36.8152ZM125.121 35.8307H127.314V36.2895H125.121V37.7037L127.608 37.7043V38.1637H124.56V34.0895H127.543V34.5492H125.121V35.8307ZM129.769 34.5502H128.406V34.0905H131.689V34.5502H130.33V38.164H129.769V34.5502ZM133.454 34.0905V35.7491H134.657C134.846 35.7491 135.042 35.7793 135.243 35.8392C135.445 35.8987 135.623 36.0204 135.778 36.2023C135.931 36.3848 136.007 36.6398 136.007 36.971C136.007 37.4145 135.871 37.7235 135.597 37.9008C135.325 38.0759 135.01 38.1644 134.656 38.1644H132.893V34.0902L133.454 34.0905H133.454ZM133.454 36.2094V37.705H134.589C134.697 37.705 134.814 37.6864 134.94 37.6493C135.066 37.6119 135.181 37.5381 135.281 37.4245C135.382 37.3126 135.433 37.1552 135.433 36.9538C135.433 36.4573 135.128 36.2088 134.519 36.2088L133.454 36.2091L133.454 36.2094Z" fill="white"/>
<path d="M187.582 33.8079H188.671C188.966 33.8079 189.195 33.7497 189.357 33.6338C189.519 33.5177 189.601 33.3479 189.601 33.1247C189.601 32.8514 189.493 32.6735 189.277 32.5915C189.449 32.4652 189.534 32.3094 189.534 32.1243C189.534 31.907 189.455 31.7511 189.295 31.6571C189.136 31.5631 188.892 31.5159 188.565 31.5159H187.582V33.8079H187.582ZM188.636 32.8602C188.789 32.8602 188.901 32.8804 188.972 32.9197C189.043 32.9594 189.078 33.0232 189.078 33.1114C189.078 33.2727 188.926 33.3537 188.623 33.3537H188.087V32.8599H188.636L188.636 32.8602ZM188.551 31.9698C188.711 31.9698 188.827 31.9847 188.901 32.014C188.975 32.0433 189.012 32.1022 189.012 32.1903C189.012 32.3462 188.901 32.4239 188.68 32.4239H188.087V31.9698H188.551ZM189.955 33.8079H190.459V32.3712L191.216 33.3056L191.928 32.3842V33.8079H192.433V31.5159H192.017L191.211 32.556L190.406 31.5159H189.954V33.8079H189.955ZM194.659 33.0762C194.509 33.2789 194.303 33.3804 194.044 33.3804C193.846 33.3804 193.682 33.3332 193.553 33.2392C193.423 33.1452 193.348 33.0099 193.327 32.8335H195.035C195.053 32.6956 195.062 32.5882 195.062 32.5118C195.062 32.1975 194.96 31.9441 194.756 31.7518C194.553 31.5592 194.295 31.4629 193.982 31.4629C193.61 31.4629 193.32 31.5748 193.112 31.798C192.904 32.0212 192.8 32.3078 192.8 32.6575C192.8 33.019 192.913 33.3075 193.139 33.5236C193.365 33.7396 193.663 33.8476 194.035 33.8476C194.425 33.8476 194.736 33.6918 194.969 33.3804L194.659 33.0762ZM193.96 31.9174C194.125 31.9174 194.258 31.9584 194.358 32.0407C194.459 32.123 194.519 32.2421 194.54 32.3976H193.331C193.364 32.2476 193.435 32.1301 193.544 32.0449C193.653 31.9597 193.792 31.9171 193.96 31.9171V31.9174ZM197.142 33.0544C196.998 33.2717 196.804 33.3807 196.563 33.3807C196.332 33.3807 196.147 33.3124 196.007 33.1758C195.867 33.0391 195.797 32.8667 195.797 32.6582C195.797 32.4434 195.864 32.2687 195.996 32.1334C196.129 31.9981 196.3 31.9307 196.509 31.9307C196.752 31.9307 196.948 32.0306 197.098 32.2304L197.474 31.9837C197.398 31.8279 197.271 31.7023 197.096 31.607C196.92 31.5114 196.718 31.4635 196.487 31.4635C196.127 31.4635 195.835 31.5768 195.611 31.8032C195.387 32.0293 195.275 32.3143 195.275 32.6585C195.275 33.0167 195.389 33.3046 195.616 33.5223C195.843 33.7399 196.143 33.8486 196.514 33.8486C196.721 33.8486 196.914 33.7991 197.094 33.7009C197.274 33.6023 197.409 33.4637 197.501 33.2844L197.143 33.0551L197.142 33.0544ZM197.576 31.9834H198.408V33.8082H198.913V31.9834H199.745V31.5162H197.576V31.9834ZM201.661 33.0762C201.511 33.2789 201.305 33.3804 201.046 33.3804C200.848 33.3804 200.684 33.3332 200.555 33.2392C200.425 33.1452 200.35 33.0099 200.329 32.8335H202.037C202.055 32.6956 202.064 32.5882 202.064 32.5118C202.064 32.1975 201.962 31.9441 201.758 31.7518C201.555 31.5592 201.297 31.4629 200.984 31.4629C200.612 31.4629 200.322 31.5748 200.114 31.798C199.906 32.0212 199.802 32.3078 199.802 32.6575C199.802 33.019 199.915 33.3075 200.14 33.5236C200.366 33.7396 200.665 33.8476 201.037 33.8476C201.426 33.8476 201.738 33.6918 201.971 33.3804L201.661 33.0762H201.661ZM200.962 31.9174C201.127 31.9174 201.26 31.9584 201.36 32.0407C201.46 32.123 201.521 32.2421 201.541 32.3976H200.333C200.366 32.2476 200.436 32.1301 200.546 32.0449C200.655 31.9597 200.793 31.9171 200.962 31.9171V31.9174ZM205.233 33.0544C205.088 33.2717 204.895 33.3807 204.653 33.3807C204.423 33.3807 204.238 33.3124 204.098 33.1758C203.957 33.0391 203.887 32.8667 203.887 32.6582C203.887 32.4434 203.954 32.2687 204.087 32.1334C204.219 31.9981 204.391 31.9307 204.6 31.9307C204.842 31.9307 205.038 32.0306 205.189 32.2304L205.565 31.9837C205.488 31.8279 205.362 31.7023 205.186 31.607C205.011 31.5114 204.808 31.4635 204.578 31.4635C204.218 31.4635 203.926 31.5768 203.702 31.8032C203.477 32.0293 203.365 32.3143 203.365 32.6585C203.365 33.0167 203.479 33.3046 203.706 33.5223C203.933 33.7399 204.233 33.8486 204.605 33.8486C204.811 33.8486 205.004 33.7991 205.184 33.7009C205.364 33.6023 205.5 33.4637 205.591 33.2844L205.233 33.0551L205.233 33.0544ZM206.897 33.8079H207.985C208.28 33.8079 208.509 33.7497 208.671 33.6338C208.834 33.5177 208.915 33.3479 208.915 33.1247C208.915 32.8514 208.807 32.6735 208.592 32.5915C208.763 32.4652 208.848 32.3094 208.848 32.1243C208.848 31.907 208.769 31.7511 208.609 31.6571C208.45 31.5631 208.206 31.5159 207.879 31.5159H206.896V33.8079H206.897ZM207.95 32.8602C208.104 32.8602 208.216 32.8804 208.286 32.9197C208.357 32.9594 208.393 33.0232 208.393 33.1114C208.393 33.2727 208.241 33.3537 207.937 33.3537H207.401V32.8599H207.95V32.8602ZM207.866 31.9698C208.025 31.9698 208.142 31.9847 208.216 32.014C208.289 32.0433 208.326 32.1022 208.326 32.1903C208.326 32.3462 208.216 32.4239 207.994 32.4239H207.401V31.9698H207.866H207.866ZM209.517 32.1724C209.729 32.0108 209.949 31.9301 210.176 31.9301C210.356 31.9301 210.484 31.9727 210.561 32.0579C210.638 32.1432 210.675 32.2726 210.672 32.446C210.548 32.4047 210.39 32.3842 210.198 32.3842C209.874 32.3842 209.613 32.4447 209.417 32.5648C209.221 32.6855 209.123 32.8677 209.123 33.1114C209.123 33.3316 209.199 33.5073 209.351 33.6381C209.503 33.7689 209.706 33.8342 209.959 33.8342C210.266 33.8342 210.504 33.7419 210.672 33.5567V33.8079H211.177V32.4064C211.177 32.1067 211.095 31.8744 210.931 31.7101C210.767 31.5455 210.535 31.4632 210.234 31.4632C210.045 31.4632 209.864 31.4931 209.692 31.5537C209.519 31.6138 209.378 31.6968 209.269 31.8029L209.517 32.1731L209.517 32.1724ZM210.07 33.3977C209.94 33.3977 209.837 33.3723 209.76 33.3205C209.683 33.2691 209.645 33.1979 209.645 33.1068C209.645 32.9041 209.847 32.8026 210.251 32.8026C210.408 32.8026 210.548 32.8231 210.672 32.8644V33.085C210.533 33.2935 210.332 33.398 210.07 33.398L210.07 33.3977ZM211.632 33.8076H212.137V32.3709L212.893 33.3053L213.606 32.3839V33.8076H214.11V31.5156H213.694L212.889 32.5557L212.083 31.5156H211.632V33.8076H211.632ZM215.022 33.8076L216.244 32.3179V33.8076H216.748V31.5156H216.31L215.089 33.0099V31.5156H214.584V33.8076H215.022Z" fill="white"/>
<path d="M202.421 12.82C202.885 12.6941 203.094 12.8245 203.047 13.1993C200.989 15.694 197.939 19.041 193.899 23.2365L191.489 25.9648C189.742 27.8927 191.282 27.3549 196.105 24.3596C196.437 24.4214 196.561 24.5613 196.476 24.7832C196.386 25.0008 196.159 25.2435 195.788 25.4989C195.422 25.7579 194.444 26.295 192.868 27.1047C191.287 27.9187 190.344 28.3596 190.037 28.4315C189.729 28.503 189.559 28.4067 189.531 28.1429C189.503 27.8826 189.793 27.2521 190.398 26.2468C192.093 23.7902 195.062 20.4891 199.3 16.3473L201.756 13.7921L201.441 13.9336C196.926 16.9433 191.491 21.9131 185.144 28.8511C184.598 28.843 184.559 28.1419 185.033 26.7439C185.507 25.346 185.93 24.5928 186.297 24.493C186.669 24.3892 186.9 24.4813 186.995 24.762C187.086 25.0428 187.005 25.1947 186.751 25.2097C186.494 25.2253 186.316 25.6817 186.21 26.5832C193.223 18.9756 198.627 14.3878 202.421 12.8197V12.82ZM202.189 22.1024C202.85 21.7686 203.511 21.6349 204.173 21.7058C204.833 21.7725 205.191 22.1925 205.246 22.9619C205.312 24.0534 203.228 24.9556 198.989 25.6752C198.108 25.9817 197.689 26.3174 197.732 26.6828C197.775 27.0481 197.952 27.2583 198.263 27.3175C198.575 27.3722 198.905 27.4057 199.254 27.4135C199.604 27.4213 200.904 27.1308 203.155 26.5422C205.402 25.9579 206.518 25.7357 206.497 25.876C206.477 26.0162 205.422 26.4225 203.324 27.0963C201.229 27.7694 199.5 28.0938 198.136 28.0733C197.209 27.8712 196.814 27.3797 196.951 26.5985L197.013 26.0555L196.211 26.1034C196.134 25.916 196.262 25.7325 196.592 25.5493C196.922 25.3658 198.786 24.2158 202.189 22.1027L202.189 22.1024ZM200.88 23.7385C198.457 24.9468 198.595 25.2084 201.288 24.5275C203.453 23.8582 204.52 23.3244 204.497 22.9372C204.473 22.5462 203.986 22.4323 203.035 22.5914L200.88 23.7385ZM206.223 21.5991L217.768 21.1368C218.092 21.3301 218.077 21.5562 217.722 21.8103C217.368 22.0604 216.019 22.227 213.676 22.3018L211.672 22.3728C211.163 22.4359 209.826 22.3809 207.656 22.2085C208.313 22.8312 208.685 23.8843 208.774 25.3629C210.441 23.8813 211.623 23.1194 212.326 23.0774C212.618 23.0843 212.705 23.2307 212.595 23.515L207.749 27.4971C207.425 27.5082 207.261 27.3666 207.251 27.069L207.891 26.1109C207.761 23.9679 207.06 22.5504 205.782 21.8545C205.746 21.6564 205.892 21.5698 206.223 21.5991H206.223Z" fill="white"/>
<path fill-rule="evenodd" clip-rule="evenodd" d="M186.814 8.20996C190.382 8.20996 193.625 9.59588 196.03 11.856L193.749 16.1221C192.129 14.0861 189.625 12.7799 186.814 12.7799C181.93 12.7799 177.971 16.723 177.971 21.587C177.971 26.2224 181.567 30.0213 186.132 30.3681L183.85 34.6368C182.227 34.2724 180.716 33.6159 179.374 32.7248V30.1947H176.534C175.365 28.8111 174.472 27.1883 173.94 25.4107C174.046 25.3157 174.15 25.2204 174.253 25.1241C175.538 23.9314 176.633 22.5595 177.415 20.9887C178.188 19.4343 178.537 17.7611 178.537 16.0294C178.537 14.5192 178.206 13.1466 177.508 11.9419C179.923 9.63102 183.202 8.21029 186.814 8.21029V8.20996Z" fill="#E22427"/>
<path d="M161.778 16.8632C162.311 15.6246 163.123 14.6015 164.214 13.793C165.305 12.9842 166.676 12.5802 168.325 12.5802C169.873 12.5802 171.084 12.953 171.959 13.6983C172.835 14.4437 173.273 15.4607 173.273 16.7496C173.273 17.3056 173.19 17.8489 173.025 18.3796C172.86 18.9102 172.556 19.4723 172.112 20.0664C171.667 20.6601 171.287 21.153 170.97 21.5447C170.653 21.9364 170.107 22.4609 169.333 23.1177C168.559 23.7746 168.02 24.2362 167.716 24.5014C167.411 24.7665 166.789 25.2532 165.851 25.9605C164.912 26.6681 164.354 27.0975 164.176 27.2491L158.162 31.6083V34.982H178.829V30.7364H165.355L168.4 28.9929C170.735 27.3757 172.561 25.9543 173.881 24.7284C175.201 23.5029 176.215 22.1762 176.926 20.7486C177.636 19.3207 177.991 17.7481 177.991 16.0293C177.991 13.6791 177.148 11.7841 175.46 10.3438C173.773 8.90323 171.42 8.18359 168.4 8.18359C165.787 8.18359 163.528 8.79652 161.625 10.0221C159.722 11.2476 158.441 12.9976 157.781 15.2716L161.777 16.8638L161.778 16.8632Z" fill="#E22427"/>
<defs>
<linearGradient id="paint0_linear_23_2967" x1="118.682" y1="23.6351" x2="118.682" y2="8.1889" gradientUnits="userSpaceOnUse">
<stop stop-color="#DEDEDE"/>
<stop offset="0.368627" stop-color="white"/>
<stop offset="0.501961" stop-color="white"/>
<stop offset="0.65098" stop-color="white"/>
<stop offset="1" stop-color="#F0F0F0"/>
</linearGradient>
</defs>
</svg>
