<svg width="189" height="35" viewBox="0 0 189 35" fill="none" xmlns="http://www.w3.org/2000/svg">
<path fill-rule="evenodd" clip-rule="evenodd" d="M35.4788 0.230925C11.1028 2.52523 -3.80501 11.4525 0.847905 20.9693C3.89341 27.198 15.0601 32.0606 31.6532 34.3829C37.5732 35.2115 53.0173 35.2042 59.0977 34.3699C78.3943 31.7221 90.534 25.213 90.534 17.5141C90.534 9.86023 78.1481 3.19801 59.264 0.693981C54.3313 0.040176 40.3915 -0.231466 35.4788 0.230925ZM33.9818 2.47663C33.9818 2.6281 31.7963 7.50667 29.125 13.3177C26.4534 19.1287 24.3706 23.9856 24.4964 24.1108C24.6218 24.236 27.0695 24.3242 29.9354 24.3065C42.7165 24.228 50.7622 21.3461 56.8928 14.6509C60.1771 11.0636 61.5341 7.28263 60.6658 4.13578C60.4799 3.46267 60.3937 2.84581 60.4742 2.76525C60.5547 2.68469 61.7749 2.83316 63.1857 3.09515C73.1016 4.93639 81.0173 9.0503 83.8053 13.8107C84.9174 15.7099 84.9862 18.2622 83.9863 20.5102C82.1719 24.5882 75.576 28.469 66.4701 30.8156C64.4279 31.3419 62.7024 31.7184 62.6358 31.6518C62.5693 31.5853 62.8308 31.1289 63.217 30.6375C65.3018 27.985 64.5643 24.2523 61.4748 21.8205C60.9872 21.4366 60.6648 20.9989 60.7583 20.8478C60.8514 20.6963 61.6462 20.4736 62.5237 20.3531C64.4734 20.0848 64.7871 19.9027 65.2076 18.7955C65.5207 17.9722 65.4737 17.916 64.3138 17.7239C63.6405 17.6127 61.89 17.5198 60.424 17.5178C57.9217 17.5145 57.6512 17.5861 56.0162 18.6883L54.2741 19.8621V21.8671C54.2741 23.0385 54.0569 24.2925 53.7515 24.8838C53.0848 26.1734 50.4858 27.3938 47.0271 28.0406C43.1686 28.7623 32.074 29.0157 26.8792 28.5007C22.8427 28.1005 22.5091 28.1112 22.1867 28.6465C21.2007 30.2853 21.3215 30.262 18.6698 29.3173C17.3029 28.8299 14.8466 27.7353 13.2109 26.8845C2.73276 21.4326 2.7943 13.4861 13.3569 8.05595C17.9766 5.68108 23.9395 3.82119 29.9899 2.86712C31.3621 2.65074 32.7094 2.43003 32.9838 2.3761C33.9136 2.19367 33.9818 2.20066 33.9818 2.47663ZM40.9251 2.90174C42.9374 3.60381 43.1659 5.5629 41.6174 8.83825C39.4631 13.3949 34.9159 18.4642 31.595 20.0115C29.9277 20.7882 28.9919 21.0335 28.9919 20.6943C28.9919 20.5352 36.5037 4.09184 37.0223 3.11645C37.3849 2.43402 39.2851 2.32949 40.9251 2.90174ZM101.179 17.6806V27.501H108.997H116.814V25.6701V23.8391H111.159H105.504V15.8497V7.8602H103.341H101.179V17.6806ZM127.861 8.76168C127.674 9.27301 125.649 13.6985 123.359 18.5961L119.196 27.501H121.453H123.709L124.609 25.495L125.508 23.4893L130.559 23.5808L135.609 23.6727L136.521 25.5868L137.432 27.501H139.598C140.789 27.501 141.758 27.3885 141.751 27.2513C141.744 27.1142 139.749 22.7323 137.318 17.5141L132.897 8.02665L130.548 7.92944C128.244 7.83457 128.193 7.85022 127.861 8.76168ZM145.09 17.6936V27.5882L151.328 27.4131C158.213 27.2197 160.015 26.8532 162.327 25.177C163.133 24.5925 164.085 23.4523 164.622 22.4273C165.412 20.919 165.54 20.2852 165.544 17.847C165.55 14.2258 164.852 12.3233 162.879 10.5853C160.486 8.47739 158.849 8.09656 151.494 7.93743L145.09 7.79895V17.6936ZM175.36 8.53032C174.539 10.065 166.713 27.001 166.713 27.2423C166.713 27.3845 167.678 27.501 168.857 27.501H171L171.896 25.5036L172.792 23.5062H177.859H182.927L183.792 25.5036L184.658 27.501H186.829C188.024 27.501 189.001 27.3885 189 27.2513C188.999 27.1142 187.009 22.7323 184.577 17.5141L180.155 8.02665L177.945 7.92878C175.985 7.84189 175.692 7.9098 175.36 8.53032ZM158.069 12.543C160.15 13.6928 161.058 15.1766 161.058 17.4299C161.058 20.4712 159.805 22.2549 157.066 23.1128C156.426 23.3132 154.442 23.5792 152.658 23.7037L149.415 23.9304V17.6836V11.4365L153.009 11.5846C156.019 11.7088 156.841 11.8646 158.069 12.543ZM132.433 15.8463C133.357 17.9373 134.112 19.6919 134.112 19.7462C134.112 19.8001 132.541 19.8444 130.62 19.8444C128.698 19.8444 127.127 19.7828 127.127 19.7076C127.127 19.632 127.663 18.3214 128.318 16.7948C128.973 15.2678 129.723 13.5088 129.985 12.8856C130.247 12.2627 130.528 11.8183 130.608 11.8989C130.688 11.9791 131.509 13.7554 132.433 15.8463ZM179.697 15.8397C180.606 17.898 181.35 19.641 181.35 19.7132C181.35 19.7855 179.778 19.8444 177.857 19.8444C175.936 19.8444 174.364 19.7955 174.364 19.7352C174.364 19.6753 174.979 18.2149 175.73 16.4895C176.48 14.7644 177.233 12.9951 177.402 12.5577C177.571 12.1206 177.785 11.838 177.877 11.9298C177.968 12.0217 178.788 13.7811 179.697 15.8397Z" fill="white"/>
</svg>
